M48
; DRILL file {KiCad (5.1.2-1)-1} date Saturday, 26 October 2019 at 01:05:31
; FORMAT={3:3/ absolute / metric / suppress leading zeros}
; #@! TF.CreationDate,2019-10-26T01:05:31+01:00
; #@! TF.GenerationSoftware,Kicad,Pcbnew,(5.1.2-1)-1
FMAT,2
METRIC,TZ
T1C0.300
T2C0.400
T3C0.800
T4C1.000
%
G90
G05
T1
X104437Y-129493
X122390Y-118256
X124553Y-140506
X124709Y-123102
X124716Y-125881
X125692Y-117647
X132054Y-111380
X132055Y-109174
X134531Y-124777
X138484Y-119402
X138492Y-117121
X139996Y-128556
X140504Y-138900
X141110Y-143397
X144253Y-114530
X148000Y-105698
X162145Y-114731
X169669Y-113655
X172016Y-112363
X175287Y-100912
X182635Y-108462
T2
X125777Y-124439
T3
X135207Y-127029
X135207Y-129569
X135207Y-132109
X135207Y-134649
X135207Y-137189
X135207Y-139729
X135207Y-142269
X135207Y-144809
X142827Y-127029
X142827Y-129569
X142827Y-132109
X142827Y-134649
X142827Y-137189
X142827Y-139729
X142827Y-142269
X142827Y-144809
X165735Y-141090
X165735Y-148590
X165735Y-120650
X165735Y-128270
X96520Y-153670
X104020Y-153670
X173378Y-115566
X173378Y-123186
X175918Y-115566
X175918Y-123186
X178458Y-115566
X178458Y-123186
X180998Y-115566
X180998Y-123186
X183538Y-115566
X183538Y-123186
X186078Y-115566
X186078Y-123186
X188618Y-115566
X188618Y-123186
X192416Y-90171
X192416Y-97671
X103816Y-118745
X111316Y-118745
X162560Y-130930
X162560Y-138430
X192428Y-115686
X192428Y-123186
X162560Y-120650
X162560Y-128270
X192421Y-102987
X192421Y-110487
X192441Y-141079
X192441Y-148579
X88587Y-126044
X88587Y-128584
X88587Y-131124
X88587Y-133664
X88587Y-136204
X88587Y-138744
X88587Y-141284
X88587Y-143824
X88587Y-146364
X91127Y-123504
X91127Y-126044
X91127Y-128584
X91127Y-131124
X91127Y-133664
X91127Y-136204
X91127Y-138744
X91127Y-141284
X91127Y-143824
X91127Y-146364
X91127Y-148904
X93667Y-123504
X93667Y-126044
X93667Y-146364
X93667Y-148904
X96207Y-123504
X96207Y-126044
X96207Y-146364
X96207Y-148904
X98747Y-123504
X98747Y-126044
X98747Y-146364
X98747Y-148904
X101287Y-123504
X101287Y-126044
X101287Y-146364
X101287Y-148904
X103827Y-123504
X103827Y-126044
X103827Y-146364
X103827Y-148904
X106367Y-123504
X106367Y-126044
X106367Y-146364
X106367Y-148904
X108907Y-123504
X108907Y-126044
X108907Y-146364
X108907Y-148904
X111447Y-123504
X111447Y-126044
X111447Y-128584
X111447Y-131124
X111447Y-133664
X111447Y-136204
X111447Y-138744
X111447Y-141284
X111447Y-143824
X111447Y-146364
X111447Y-148904
X113987Y-126044
X113987Y-128584
X113987Y-131124
X113987Y-133664
X113987Y-136204
X113987Y-138744
X113987Y-141284
X113987Y-143824
X113987Y-146364
X173366Y-90171
X173366Y-97791
X175906Y-90171
X175906Y-97791
X178446Y-90171
X178446Y-97791
X180986Y-90171
X180986Y-97791
X183526Y-90171
X183526Y-97791
X186066Y-90171
X186066Y-97791
X188606Y-90171
X188606Y-97791
X86995Y-90170
X86995Y-113030
X89535Y-90170
X89535Y-113030
X92075Y-90170
X92075Y-113030
X94615Y-90170
X94615Y-113030
X97155Y-90170
X97155Y-113030
X99695Y-90170
X99695Y-113030
X102235Y-90170
X102235Y-113030
X104775Y-90170
X104775Y-113030
X107315Y-90170
X107315Y-113030
X109855Y-90170
X109855Y-113030
X112395Y-90170
X112395Y-113030
X114935Y-90170
X114935Y-113030
X117475Y-90170
X117475Y-113030
X120015Y-90170
X120015Y-113030
X122555Y-90170
X122555Y-113030
X125095Y-90170
X125095Y-113030
X127635Y-90170
X127635Y-113030
X130175Y-90170
X130175Y-113030
X132715Y-90170
X132715Y-113030
X135255Y-90170
X135255Y-113030
X137795Y-90170
X137795Y-113030
X140335Y-90170
X140335Y-113030
X142875Y-90170
X142875Y-113030
X145415Y-90170
X145415Y-113030
X147955Y-90170
X147955Y-113030
X150495Y-90170
X150495Y-113030
X153035Y-90170
X153035Y-113030
X155575Y-90170
X155575Y-113030
X158115Y-90170
X158115Y-113030
X160655Y-90170
X160655Y-113030
X163195Y-90170
X163195Y-113030
X165735Y-90170
X165735Y-113030
X173384Y-128254
X173384Y-135874
X175924Y-128254
X175924Y-135874
X178464Y-128254
X178464Y-135874
X181004Y-128254
X181004Y-135874
X183544Y-128254
X183544Y-135874
X186084Y-128254
X186084Y-135874
X188624Y-128254
X188624Y-135874
X135207Y-148619
X142707Y-148619
X192434Y-128374
X192434Y-135874
X173391Y-140959
X173391Y-148579
X175931Y-140959
X175931Y-148579
X178471Y-140959
X178471Y-148579
X181011Y-140959
X181011Y-148579
X183551Y-140959
X183551Y-148579
X186091Y-140959
X186091Y-148579
X188631Y-140959
X188631Y-148579
X122507Y-127029
X122507Y-129569
X122507Y-132109
X122507Y-134649
X122507Y-137189
X122507Y-139729
X122507Y-142269
X122507Y-144809
X130127Y-127029
X130127Y-129569
X130127Y-132109
X130127Y-134649
X130127Y-137189
X130127Y-139729
X130127Y-142269
X130127Y-144809
X147907Y-148619
X155407Y-148619
X122507Y-148619
X130007Y-148619
X147907Y-127029
X147907Y-129569
X147907Y-132109
X147907Y-134649
X147907Y-137189
X147907Y-139729
X147907Y-142269
X147907Y-144809
X155527Y-127029
X155527Y-129569
X155527Y-132109
X155527Y-134649
X155527Y-137189
X155527Y-139729
X155527Y-142269
X155527Y-144809
X165735Y-130810
X165735Y-138430
X173371Y-102867
X173371Y-110487
X175911Y-102867
X175911Y-110487
X178451Y-102867
X178451Y-110487
X180991Y-102867
X180991Y-110487
X183531Y-102867
X183531Y-110487
X186071Y-102867
X186071Y-110487
X188611Y-102867
X188611Y-110487
T4
X160655Y-153035
X163195Y-153035
X165735Y-153035
T0
M30
