M48
; DRILL file {KiCad (5.1.2-1)-1} date Saturday, 02 November 2019 at 15:46:25
; FORMAT={3:3/ absolute / metric / suppress leading zeros}
; #@! TF.CreationDate,2019-11-02T15:46:25+00:00
; #@! TF.GenerationSoftware,Kicad,Pcbnew,(5.1.2-1)-1
FMAT,2
METRIC,TZ
T1C0.300
T2C0.800
T3C1.000
%
G90
G05
T1
X92896Y-114764
X102580Y-129730
X103371Y-121174
X109593Y-121205
X113400Y-117791
X114148Y-139956
X114862Y-116492
X116271Y-116541
X118194Y-106166
X118641Y-129588
X118880Y-134496
X124258Y-97907
X124283Y-133379
X125564Y-109138
X126260Y-117380
X127608Y-141505
X127843Y-120891
X133164Y-133252
X137780Y-124909
X137804Y-143342
X138403Y-115509
X139325Y-115377
X139750Y-117113
X141263Y-122298
X141946Y-114901
X142706Y-123837
X143506Y-123837
X144334Y-114500
X146387Y-111640
X152019Y-127050
X156268Y-92996
X171649Y-109314
X173081Y-105194
X173849Y-106258
X174713Y-130674
X181729Y-113581
T2
X173366Y-90171
X173366Y-97791
X175906Y-90171
X175906Y-97791
X178446Y-90171
X178446Y-97791
X180986Y-90171
X180986Y-97791
X183526Y-90171
X183526Y-97791
X186066Y-90171
X186066Y-97791
X188606Y-90171
X188606Y-97791
X192441Y-141079
X192441Y-148579
X135207Y-127029
X135207Y-129569
X135207Y-132109
X135207Y-134649
X135207Y-137189
X135207Y-139729
X135207Y-142269
X135207Y-144809
X142827Y-127029
X142827Y-129569
X142827Y-132109
X142827Y-134649
X142827Y-137189
X142827Y-139729
X142827Y-142269
X142827Y-144809
X122507Y-127029
X122507Y-129569
X122507Y-132109
X122507Y-134649
X122507Y-137189
X122507Y-139729
X122507Y-142269
X122507Y-144809
X130127Y-127029
X130127Y-129569
X130127Y-132109
X130127Y-134649
X130127Y-137189
X130127Y-139729
X130127Y-142269
X130127Y-144809
X135207Y-148619
X142707Y-148619
X173391Y-140959
X173391Y-148579
X175931Y-140959
X175931Y-148579
X178471Y-140959
X178471Y-148579
X181011Y-140959
X181011Y-148579
X183551Y-140959
X183551Y-148579
X186091Y-140959
X186091Y-148579
X188631Y-140959
X188631Y-148579
X96520Y-153670
X104020Y-153670
X122507Y-148619
X130007Y-148619
X173371Y-102867
X173371Y-110487
X175911Y-102867
X175911Y-110487
X178451Y-102867
X178451Y-110487
X180991Y-102867
X180991Y-110487
X183531Y-102867
X183531Y-110487
X186071Y-102867
X186071Y-110487
X188611Y-102867
X188611Y-110487
X192434Y-128374
X192434Y-135874
X103816Y-118500
X111316Y-118500
X165735Y-141090
X165735Y-148590
X192428Y-115686
X192428Y-123186
X147907Y-148619
X155407Y-148619
X192416Y-90171
X192416Y-97671
X147907Y-127029
X147907Y-129569
X147907Y-132109
X147907Y-134649
X147907Y-137189
X147907Y-139729
X147907Y-142269
X147907Y-144809
X155527Y-127029
X155527Y-129569
X155527Y-132109
X155527Y-134649
X155527Y-137189
X155527Y-139729
X155527Y-142269
X155527Y-144809
X165735Y-120650
X165735Y-128270
X173384Y-128254
X173384Y-135874
X175924Y-128254
X175924Y-135874
X178464Y-128254
X178464Y-135874
X181004Y-128254
X181004Y-135874
X183544Y-128254
X183544Y-135874
X186084Y-128254
X186084Y-135874
X188624Y-128254
X188624Y-135874
X165735Y-130810
X165735Y-138430
X173378Y-115566
X173378Y-123186
X175918Y-115566
X175918Y-123186
X178458Y-115566
X178458Y-123186
X180998Y-115566
X180998Y-123186
X183538Y-115566
X183538Y-123186
X186078Y-115566
X186078Y-123186
X188618Y-115566
X188618Y-123186
X192421Y-102987
X192421Y-110487
X87000Y-90140
X87000Y-113000
X89540Y-90140
X89540Y-113000
X92080Y-90140
X92080Y-113000
X94620Y-90140
X94620Y-113000
X97160Y-90140
X97160Y-113000
X99700Y-90140
X99700Y-113000
X102240Y-90140
X102240Y-113000
X104780Y-90140
X104780Y-113000
X107320Y-90140
X107320Y-113000
X109860Y-90140
X109860Y-113000
X112400Y-90140
X112400Y-113000
X114940Y-90140
X114940Y-113000
X117480Y-90140
X117480Y-113000
X120020Y-90140
X120020Y-113000
X122560Y-90140
X122560Y-113000
X125100Y-90140
X125100Y-113000
X127640Y-90140
X127640Y-113000
X130180Y-90140
X130180Y-113000
X132720Y-90140
X132720Y-113000
X135260Y-90140
X135260Y-113000
X137800Y-90140
X137800Y-113000
X140340Y-90140
X140340Y-113000
X142880Y-90140
X142880Y-113000
X145420Y-90140
X145420Y-113000
X147960Y-90140
X147960Y-113000
X150500Y-90140
X150500Y-113000
X153040Y-90140
X153040Y-113000
X155580Y-90140
X155580Y-113000
X158120Y-90140
X158120Y-113000
X160660Y-90140
X160660Y-113000
X163200Y-90140
X163200Y-113000
X165740Y-90140
X165740Y-113000
X162560Y-120650
X162560Y-128270
X162560Y-130930
X162560Y-138430
X88513Y-125986
X88513Y-128526
X88513Y-131066
X88513Y-133606
X88513Y-136146
X88513Y-138686
X88513Y-141226
X88513Y-143766
X88513Y-146306
X91053Y-123446
X91053Y-125986
X91053Y-128526
X91053Y-131066
X91053Y-133606
X91053Y-136146
X91053Y-138686
X91053Y-141226
X91053Y-143766
X91053Y-146306
X91053Y-148846
X93593Y-123446
X93593Y-125986
X93593Y-146306
X93593Y-148846
X96133Y-123446
X96133Y-125986
X96133Y-146306
X96133Y-148846
X98673Y-123446
X98673Y-125986
X98673Y-146306
X98673Y-148846
X101213Y-123446
X101213Y-125986
X101213Y-146306
X101213Y-148846
X103753Y-123446
X103753Y-125986
X103753Y-146306
X103753Y-148846
X106293Y-123446
X106293Y-125986
X106293Y-146306
X106293Y-148846
X108833Y-123446
X108833Y-125986
X108833Y-146306
X108833Y-148846
X111373Y-123446
X111373Y-125986
X111373Y-128526
X111373Y-131066
X111373Y-133606
X111373Y-136146
X111373Y-138686
X111373Y-141226
X111373Y-143766
X111373Y-146306
X111373Y-148846
X113913Y-125986
X113913Y-128526
X113913Y-131066
X113913Y-133606
X113913Y-136146
X113913Y-138686
X113913Y-141226
X113913Y-143766
X113913Y-146306
T3
X160655Y-153035
X163195Y-153035
X165735Y-153035
T0
M30
