G04 #@! TF.GenerationSoftware,KiCad,Pcbnew,(5.1.2-1)-1*
G04 #@! TF.CreationDate,2019-11-02T15:46:29+00:00*
G04 #@! TF.ProjectId,A500 14Mhz Accelerator,41353030-2031-4344-9d68-7a2041636365,rev?*
G04 #@! TF.SameCoordinates,Original*
G04 #@! TF.FileFunction,Legend,Top*
G04 #@! TF.FilePolarity,Positive*
%FSLAX46Y46*%
G04 Gerber Fmt 4.6, Leading zero omitted, Abs format (unit mm)*
G04 Created by KiCad (PCBNEW (5.1.2-1)-1) date 2019-11-02 15:46:29*
%MOMM*%
%LPD*%
G04 APERTURE LIST*
%ADD10C,0.125000*%
%ADD11C,0.150000*%
%ADD12C,0.120000*%
G04 APERTURE END LIST*
D10*
X160833095Y-151491904D02*
X160375952Y-151491904D01*
X160604523Y-151491904D02*
X160604523Y-150691904D01*
X160528333Y-150806190D01*
X160452142Y-150882380D01*
X160375952Y-150920476D01*
X162966428Y-150768095D02*
X163004523Y-150730000D01*
X163080714Y-150691904D01*
X163271190Y-150691904D01*
X163347380Y-150730000D01*
X163385476Y-150768095D01*
X163423571Y-150844285D01*
X163423571Y-150920476D01*
X163385476Y-151034761D01*
X162928333Y-151491904D01*
X163423571Y-151491904D01*
X165518809Y-150691904D02*
X166014047Y-150691904D01*
X165747380Y-150996666D01*
X165861666Y-150996666D01*
X165937857Y-151034761D01*
X165975952Y-151072857D01*
X166014047Y-151149047D01*
X166014047Y-151339523D01*
X165975952Y-151415714D01*
X165937857Y-151453809D01*
X165861666Y-151491904D01*
X165633095Y-151491904D01*
X165556904Y-151453809D01*
X165518809Y-151415714D01*
D11*
X86809523Y-157452380D02*
X86619047Y-157452380D01*
X86523809Y-157500000D01*
X86476190Y-157547619D01*
X86380952Y-157690476D01*
X86333333Y-157880952D01*
X86333333Y-158261904D01*
X86380952Y-158357142D01*
X86428571Y-158404761D01*
X86523809Y-158452380D01*
X86714285Y-158452380D01*
X86809523Y-158404761D01*
X86857142Y-158357142D01*
X86904761Y-158261904D01*
X86904761Y-158023809D01*
X86857142Y-157928571D01*
X86809523Y-157880952D01*
X86714285Y-157833333D01*
X86523809Y-157833333D01*
X86428571Y-157880952D01*
X86380952Y-157928571D01*
X86333333Y-158023809D01*
X87476190Y-157880952D02*
X87380952Y-157833333D01*
X87333333Y-157785714D01*
X87285714Y-157690476D01*
X87285714Y-157642857D01*
X87333333Y-157547619D01*
X87380952Y-157500000D01*
X87476190Y-157452380D01*
X87666666Y-157452380D01*
X87761904Y-157500000D01*
X87809523Y-157547619D01*
X87857142Y-157642857D01*
X87857142Y-157690476D01*
X87809523Y-157785714D01*
X87761904Y-157833333D01*
X87666666Y-157880952D01*
X87476190Y-157880952D01*
X87380952Y-157928571D01*
X87333333Y-157976190D01*
X87285714Y-158071428D01*
X87285714Y-158261904D01*
X87333333Y-158357142D01*
X87380952Y-158404761D01*
X87476190Y-158452380D01*
X87666666Y-158452380D01*
X87761904Y-158404761D01*
X87809523Y-158357142D01*
X87857142Y-158261904D01*
X87857142Y-158071428D01*
X87809523Y-157976190D01*
X87761904Y-157928571D01*
X87666666Y-157880952D01*
X88476190Y-157452380D02*
X88571428Y-157452380D01*
X88666666Y-157500000D01*
X88714285Y-157547619D01*
X88761904Y-157642857D01*
X88809523Y-157833333D01*
X88809523Y-158071428D01*
X88761904Y-158261904D01*
X88714285Y-158357142D01*
X88666666Y-158404761D01*
X88571428Y-158452380D01*
X88476190Y-158452380D01*
X88380952Y-158404761D01*
X88333333Y-158357142D01*
X88285714Y-158261904D01*
X88238095Y-158071428D01*
X88238095Y-157833333D01*
X88285714Y-157642857D01*
X88333333Y-157547619D01*
X88380952Y-157500000D01*
X88476190Y-157452380D01*
X89428571Y-157452380D02*
X89523809Y-157452380D01*
X89619047Y-157500000D01*
X89666666Y-157547619D01*
X89714285Y-157642857D01*
X89761904Y-157833333D01*
X89761904Y-158071428D01*
X89714285Y-158261904D01*
X89666666Y-158357142D01*
X89619047Y-158404761D01*
X89523809Y-158452380D01*
X89428571Y-158452380D01*
X89333333Y-158404761D01*
X89285714Y-158357142D01*
X89238095Y-158261904D01*
X89190476Y-158071428D01*
X89190476Y-157833333D01*
X89238095Y-157642857D01*
X89285714Y-157547619D01*
X89333333Y-157500000D01*
X89428571Y-157452380D01*
X90380952Y-157452380D02*
X90476190Y-157452380D01*
X90571428Y-157500000D01*
X90619047Y-157547619D01*
X90666666Y-157642857D01*
X90714285Y-157833333D01*
X90714285Y-158071428D01*
X90666666Y-158261904D01*
X90619047Y-158357142D01*
X90571428Y-158404761D01*
X90476190Y-158452380D01*
X90380952Y-158452380D01*
X90285714Y-158404761D01*
X90238095Y-158357142D01*
X90190476Y-158261904D01*
X90142857Y-158071428D01*
X90142857Y-157833333D01*
X90190476Y-157642857D01*
X90238095Y-157547619D01*
X90285714Y-157500000D01*
X90380952Y-157452380D01*
X92476190Y-158357142D02*
X92428571Y-158404761D01*
X92285714Y-158452380D01*
X92190476Y-158452380D01*
X92047619Y-158404761D01*
X91952380Y-158309523D01*
X91904761Y-158214285D01*
X91857142Y-158023809D01*
X91857142Y-157880952D01*
X91904761Y-157690476D01*
X91952380Y-157595238D01*
X92047619Y-157500000D01*
X92190476Y-157452380D01*
X92285714Y-157452380D01*
X92428571Y-157500000D01*
X92476190Y-157547619D01*
X93047619Y-158452380D02*
X92952380Y-158404761D01*
X92904761Y-158309523D01*
X92904761Y-157452380D01*
X93571428Y-158452380D02*
X93476190Y-158404761D01*
X93428571Y-158357142D01*
X93380952Y-158261904D01*
X93380952Y-157976190D01*
X93428571Y-157880952D01*
X93476190Y-157833333D01*
X93571428Y-157785714D01*
X93714285Y-157785714D01*
X93809523Y-157833333D01*
X93857142Y-157880952D01*
X93904761Y-157976190D01*
X93904761Y-158261904D01*
X93857142Y-158357142D01*
X93809523Y-158404761D01*
X93714285Y-158452380D01*
X93571428Y-158452380D01*
X94761904Y-158404761D02*
X94666666Y-158452380D01*
X94476190Y-158452380D01*
X94380952Y-158404761D01*
X94333333Y-158357142D01*
X94285714Y-158261904D01*
X94285714Y-157976190D01*
X94333333Y-157880952D01*
X94380952Y-157833333D01*
X94476190Y-157785714D01*
X94666666Y-157785714D01*
X94761904Y-157833333D01*
X95190476Y-158452380D02*
X95190476Y-157452380D01*
X95285714Y-158071428D02*
X95571428Y-158452380D01*
X95571428Y-157785714D02*
X95190476Y-158166666D01*
X96761904Y-158452380D02*
X96761904Y-157452380D01*
X97000000Y-157452380D01*
X97142857Y-157500000D01*
X97238095Y-157595238D01*
X97285714Y-157690476D01*
X97333333Y-157880952D01*
X97333333Y-158023809D01*
X97285714Y-158214285D01*
X97238095Y-158309523D01*
X97142857Y-158404761D01*
X97000000Y-158452380D01*
X96761904Y-158452380D01*
X97904761Y-158452380D02*
X97809523Y-158404761D01*
X97761904Y-158357142D01*
X97714285Y-158261904D01*
X97714285Y-157976190D01*
X97761904Y-157880952D01*
X97809523Y-157833333D01*
X97904761Y-157785714D01*
X98047619Y-157785714D01*
X98142857Y-157833333D01*
X98190476Y-157880952D01*
X98238095Y-157976190D01*
X98238095Y-158261904D01*
X98190476Y-158357142D01*
X98142857Y-158404761D01*
X98047619Y-158452380D01*
X97904761Y-158452380D01*
X99095238Y-157785714D02*
X99095238Y-158452380D01*
X98666666Y-157785714D02*
X98666666Y-158309523D01*
X98714285Y-158404761D01*
X98809523Y-158452380D01*
X98952380Y-158452380D01*
X99047619Y-158404761D01*
X99095238Y-158357142D01*
X99571428Y-158452380D02*
X99571428Y-157452380D01*
X99571428Y-157833333D02*
X99666666Y-157785714D01*
X99857142Y-157785714D01*
X99952380Y-157833333D01*
X100000000Y-157880952D01*
X100047619Y-157976190D01*
X100047619Y-158261904D01*
X100000000Y-158357142D01*
X99952380Y-158404761D01*
X99857142Y-158452380D01*
X99666666Y-158452380D01*
X99571428Y-158404761D01*
X100619047Y-158452380D02*
X100523809Y-158404761D01*
X100476190Y-158309523D01*
X100476190Y-157452380D01*
X101380952Y-158404761D02*
X101285714Y-158452380D01*
X101095238Y-158452380D01*
X101000000Y-158404761D01*
X100952380Y-158309523D01*
X100952380Y-157928571D01*
X101000000Y-157833333D01*
X101095238Y-157785714D01*
X101285714Y-157785714D01*
X101380952Y-157833333D01*
X101428571Y-157928571D01*
X101428571Y-158023809D01*
X100952380Y-158119047D01*
X101857142Y-158452380D02*
X101857142Y-157785714D01*
X101857142Y-157976190D02*
X101904761Y-157880952D01*
X101952380Y-157833333D01*
X102047619Y-157785714D01*
X102142857Y-157785714D01*
X103238095Y-158071428D02*
X104000000Y-158071428D01*
X105190476Y-158166666D02*
X105666666Y-158166666D01*
X105095238Y-158452380D02*
X105428571Y-157452380D01*
X105761904Y-158452380D01*
X106523809Y-158452380D02*
X106523809Y-157452380D01*
X106523809Y-158404761D02*
X106428571Y-158452380D01*
X106238095Y-158452380D01*
X106142857Y-158404761D01*
X106095238Y-158357142D01*
X106047619Y-158261904D01*
X106047619Y-157976190D01*
X106095238Y-157880952D01*
X106142857Y-157833333D01*
X106238095Y-157785714D01*
X106428571Y-157785714D01*
X106523809Y-157833333D01*
X107428571Y-158452380D02*
X107428571Y-157928571D01*
X107380952Y-157833333D01*
X107285714Y-157785714D01*
X107095238Y-157785714D01*
X107000000Y-157833333D01*
X107428571Y-158404761D02*
X107333333Y-158452380D01*
X107095238Y-158452380D01*
X107000000Y-158404761D01*
X106952380Y-158309523D01*
X106952380Y-158214285D01*
X107000000Y-158119047D01*
X107095238Y-158071428D01*
X107333333Y-158071428D01*
X107428571Y-158023809D01*
X107904761Y-157785714D02*
X107904761Y-158785714D01*
X107904761Y-157833333D02*
X108000000Y-157785714D01*
X108190476Y-157785714D01*
X108285714Y-157833333D01*
X108333333Y-157880952D01*
X108380952Y-157976190D01*
X108380952Y-158261904D01*
X108333333Y-158357142D01*
X108285714Y-158404761D01*
X108190476Y-158452380D01*
X108000000Y-158452380D01*
X107904761Y-158404761D01*
X108666666Y-157785714D02*
X109047619Y-157785714D01*
X108809523Y-157452380D02*
X108809523Y-158309523D01*
X108857142Y-158404761D01*
X108952380Y-158452380D01*
X109047619Y-158452380D01*
X109761904Y-158404761D02*
X109666666Y-158452380D01*
X109476190Y-158452380D01*
X109380952Y-158404761D01*
X109333333Y-158309523D01*
X109333333Y-157928571D01*
X109380952Y-157833333D01*
X109476190Y-157785714D01*
X109666666Y-157785714D01*
X109761904Y-157833333D01*
X109809523Y-157928571D01*
X109809523Y-158023809D01*
X109333333Y-158119047D01*
X110666666Y-158452380D02*
X110666666Y-157452380D01*
X110666666Y-158404761D02*
X110571428Y-158452380D01*
X110380952Y-158452380D01*
X110285714Y-158404761D01*
X110238095Y-158357142D01*
X110190476Y-158261904D01*
X110190476Y-157976190D01*
X110238095Y-157880952D01*
X110285714Y-157833333D01*
X110380952Y-157785714D01*
X110571428Y-157785714D01*
X110666666Y-157833333D01*
X111761904Y-157785714D02*
X112142857Y-157785714D01*
X111904761Y-158452380D02*
X111904761Y-157595238D01*
X111952380Y-157500000D01*
X112047619Y-157452380D01*
X112142857Y-157452380D01*
X112476190Y-158452380D02*
X112476190Y-157785714D01*
X112476190Y-157976190D02*
X112523809Y-157880952D01*
X112571428Y-157833333D01*
X112666666Y-157785714D01*
X112761904Y-157785714D01*
X113238095Y-158452380D02*
X113142857Y-158404761D01*
X113095238Y-158357142D01*
X113047619Y-158261904D01*
X113047619Y-157976190D01*
X113095238Y-157880952D01*
X113142857Y-157833333D01*
X113238095Y-157785714D01*
X113380952Y-157785714D01*
X113476190Y-157833333D01*
X113523809Y-157880952D01*
X113571428Y-157976190D01*
X113571428Y-158261904D01*
X113523809Y-158357142D01*
X113476190Y-158404761D01*
X113380952Y-158452380D01*
X113238095Y-158452380D01*
X114000000Y-158452380D02*
X114000000Y-157785714D01*
X114000000Y-157880952D02*
X114047619Y-157833333D01*
X114142857Y-157785714D01*
X114285714Y-157785714D01*
X114380952Y-157833333D01*
X114428571Y-157928571D01*
X114428571Y-158452380D01*
X114428571Y-157928571D02*
X114476190Y-157833333D01*
X114571428Y-157785714D01*
X114714285Y-157785714D01*
X114809523Y-157833333D01*
X114857142Y-157928571D01*
X114857142Y-158452380D01*
X116047619Y-158404761D02*
X116190476Y-158452380D01*
X116428571Y-158452380D01*
X116523809Y-158404761D01*
X116571428Y-158357142D01*
X116619047Y-158261904D01*
X116619047Y-158166666D01*
X116571428Y-158071428D01*
X116523809Y-158023809D01*
X116428571Y-157976190D01*
X116238095Y-157928571D01*
X116142857Y-157880952D01*
X116095238Y-157833333D01*
X116047619Y-157738095D01*
X116047619Y-157642857D01*
X116095238Y-157547619D01*
X116142857Y-157500000D01*
X116238095Y-157452380D01*
X116476190Y-157452380D01*
X116619047Y-157500000D01*
X117476190Y-158404761D02*
X117380952Y-158452380D01*
X117190476Y-158452380D01*
X117095238Y-158404761D01*
X117047619Y-158357142D01*
X117000000Y-158261904D01*
X117000000Y-157976190D01*
X117047619Y-157880952D01*
X117095238Y-157833333D01*
X117190476Y-157785714D01*
X117380952Y-157785714D01*
X117476190Y-157833333D01*
X117904761Y-158452380D02*
X117904761Y-157452380D01*
X118333333Y-158452380D02*
X118333333Y-157928571D01*
X118285714Y-157833333D01*
X118190476Y-157785714D01*
X118047619Y-157785714D01*
X117952380Y-157833333D01*
X117904761Y-157880952D01*
X119190476Y-158404761D02*
X119095238Y-158452380D01*
X118904761Y-158452380D01*
X118809523Y-158404761D01*
X118761904Y-158309523D01*
X118761904Y-157928571D01*
X118809523Y-157833333D01*
X118904761Y-157785714D01*
X119095238Y-157785714D01*
X119190476Y-157833333D01*
X119238095Y-157928571D01*
X119238095Y-158023809D01*
X118761904Y-158119047D01*
X119666666Y-158452380D02*
X119666666Y-157785714D01*
X119666666Y-157880952D02*
X119714285Y-157833333D01*
X119809523Y-157785714D01*
X119952380Y-157785714D01*
X120047619Y-157833333D01*
X120095238Y-157928571D01*
X120095238Y-158452380D01*
X120095238Y-157928571D02*
X120142857Y-157833333D01*
X120238095Y-157785714D01*
X120380952Y-157785714D01*
X120476190Y-157833333D01*
X120523809Y-157928571D01*
X120523809Y-158452380D01*
X121428571Y-158452380D02*
X121428571Y-157928571D01*
X121380952Y-157833333D01*
X121285714Y-157785714D01*
X121095238Y-157785714D01*
X121000000Y-157833333D01*
X121428571Y-158404761D02*
X121333333Y-158452380D01*
X121095238Y-158452380D01*
X121000000Y-158404761D01*
X120952380Y-158309523D01*
X120952380Y-158214285D01*
X121000000Y-158119047D01*
X121095238Y-158071428D01*
X121333333Y-158071428D01*
X121428571Y-158023809D01*
X121761904Y-157785714D02*
X122142857Y-157785714D01*
X121904761Y-157452380D02*
X121904761Y-158309523D01*
X121952380Y-158404761D01*
X122047619Y-158452380D01*
X122142857Y-158452380D01*
X122476190Y-158452380D02*
X122476190Y-157785714D01*
X122476190Y-157452380D02*
X122428571Y-157500000D01*
X122476190Y-157547619D01*
X122523809Y-157500000D01*
X122476190Y-157452380D01*
X122476190Y-157547619D01*
X123380952Y-158404761D02*
X123285714Y-158452380D01*
X123095238Y-158452380D01*
X123000000Y-158404761D01*
X122952380Y-158357142D01*
X122904761Y-158261904D01*
X122904761Y-157976190D01*
X122952380Y-157880952D01*
X123000000Y-157833333D01*
X123095238Y-157785714D01*
X123285714Y-157785714D01*
X123380952Y-157833333D01*
X124571428Y-158452380D02*
X124571428Y-157452380D01*
X124571428Y-157833333D02*
X124666666Y-157785714D01*
X124857142Y-157785714D01*
X124952380Y-157833333D01*
X125000000Y-157880952D01*
X125047619Y-157976190D01*
X125047619Y-158261904D01*
X125000000Y-158357142D01*
X124952380Y-158404761D01*
X124857142Y-158452380D01*
X124666666Y-158452380D01*
X124571428Y-158404761D01*
X125380952Y-157785714D02*
X125619047Y-158452380D01*
X125857142Y-157785714D02*
X125619047Y-158452380D01*
X125523809Y-158690476D01*
X125476190Y-158738095D01*
X125380952Y-158785714D01*
X127476190Y-158452380D02*
X127000000Y-158452380D01*
X127000000Y-157452380D01*
X127809523Y-158452380D02*
X127809523Y-157785714D01*
X127809523Y-157452380D02*
X127761904Y-157500000D01*
X127809523Y-157547619D01*
X127857142Y-157500000D01*
X127809523Y-157452380D01*
X127809523Y-157547619D01*
X128190476Y-157785714D02*
X128428571Y-158452380D01*
X128666666Y-157785714D01*
X129047619Y-158452380D02*
X129047619Y-157785714D01*
X129047619Y-157452380D02*
X129000000Y-157500000D01*
X129047619Y-157547619D01*
X129095238Y-157500000D01*
X129047619Y-157452380D01*
X129047619Y-157547619D01*
X129666666Y-158452380D02*
X129571428Y-158404761D01*
X129523809Y-158357142D01*
X129476190Y-158261904D01*
X129476190Y-157976190D01*
X129523809Y-157880952D01*
X129571428Y-157833333D01*
X129666666Y-157785714D01*
X129809523Y-157785714D01*
X129904761Y-157833333D01*
X129952380Y-157880952D01*
X130000000Y-157976190D01*
X130000000Y-158261904D01*
X129952380Y-158357142D01*
X129904761Y-158404761D01*
X129809523Y-158452380D01*
X129666666Y-158452380D01*
X131190476Y-158452380D02*
X131190476Y-157452380D01*
X131571428Y-157452380D01*
X131666666Y-157500000D01*
X131714285Y-157547619D01*
X131761904Y-157642857D01*
X131761904Y-157785714D01*
X131714285Y-157880952D01*
X131666666Y-157928571D01*
X131571428Y-157976190D01*
X131190476Y-157976190D01*
X132333333Y-158452380D02*
X132238095Y-158404761D01*
X132190476Y-158309523D01*
X132190476Y-157452380D01*
X132857142Y-158452380D02*
X132761904Y-158404761D01*
X132714285Y-158357142D01*
X132666666Y-158261904D01*
X132666666Y-157976190D01*
X132714285Y-157880952D01*
X132761904Y-157833333D01*
X132857142Y-157785714D01*
X133000000Y-157785714D01*
X133095238Y-157833333D01*
X133142857Y-157880952D01*
X133190476Y-157976190D01*
X133190476Y-158261904D01*
X133142857Y-158357142D01*
X133095238Y-158404761D01*
X133000000Y-158452380D01*
X132857142Y-158452380D01*
X133571428Y-158404761D02*
X133666666Y-158452380D01*
X133857142Y-158452380D01*
X133952380Y-158404761D01*
X134000000Y-158309523D01*
X134000000Y-158261904D01*
X133952380Y-158166666D01*
X133857142Y-158119047D01*
X133714285Y-158119047D01*
X133619047Y-158071428D01*
X133571428Y-157976190D01*
X133571428Y-157928571D01*
X133619047Y-157833333D01*
X133714285Y-157785714D01*
X133857142Y-157785714D01*
X133952380Y-157833333D01*
X135476190Y-158833333D02*
X135428571Y-158785714D01*
X135333333Y-158642857D01*
X135285714Y-158547619D01*
X135238095Y-158404761D01*
X135190476Y-158166666D01*
X135190476Y-157976190D01*
X135238095Y-157738095D01*
X135285714Y-157595238D01*
X135333333Y-157500000D01*
X135428571Y-157357142D01*
X135476190Y-157309523D01*
X136428571Y-158357142D02*
X136380952Y-158404761D01*
X136238095Y-158452380D01*
X136142857Y-158452380D01*
X136000000Y-158404761D01*
X135904761Y-158309523D01*
X135857142Y-158214285D01*
X135809523Y-158023809D01*
X135809523Y-157880952D01*
X135857142Y-157690476D01*
X135904761Y-157595238D01*
X136000000Y-157500000D01*
X136142857Y-157452380D01*
X136238095Y-157452380D01*
X136380952Y-157500000D01*
X136428571Y-157547619D01*
X136761904Y-158833333D02*
X136809523Y-158785714D01*
X136904761Y-158642857D01*
X136952380Y-158547619D01*
X137000000Y-158404761D01*
X137047619Y-158166666D01*
X137047619Y-157976190D01*
X137000000Y-157738095D01*
X136952380Y-157595238D01*
X136904761Y-157500000D01*
X136809523Y-157357142D01*
X136761904Y-157309523D01*
X138809523Y-158452380D02*
X138238095Y-158452380D01*
X138523809Y-158452380D02*
X138523809Y-157452380D01*
X138428571Y-157595238D01*
X138333333Y-157690476D01*
X138238095Y-157738095D01*
X139285714Y-158452380D02*
X139476190Y-158452380D01*
X139571428Y-158404761D01*
X139619047Y-158357142D01*
X139714285Y-158214285D01*
X139761904Y-158023809D01*
X139761904Y-157642857D01*
X139714285Y-157547619D01*
X139666666Y-157500000D01*
X139571428Y-157452380D01*
X139380952Y-157452380D01*
X139285714Y-157500000D01*
X139238095Y-157547619D01*
X139190476Y-157642857D01*
X139190476Y-157880952D01*
X139238095Y-157976190D01*
X139285714Y-158023809D01*
X139380952Y-158071428D01*
X139571428Y-158071428D01*
X139666666Y-158023809D01*
X139714285Y-157976190D01*
X139761904Y-157880952D01*
X140238095Y-158452380D02*
X140428571Y-158452380D01*
X140523809Y-158404761D01*
X140571428Y-158357142D01*
X140666666Y-158214285D01*
X140714285Y-158023809D01*
X140714285Y-157642857D01*
X140666666Y-157547619D01*
X140619047Y-157500000D01*
X140523809Y-157452380D01*
X140333333Y-157452380D01*
X140238095Y-157500000D01*
X140190476Y-157547619D01*
X140142857Y-157642857D01*
X140142857Y-157880952D01*
X140190476Y-157976190D01*
X140238095Y-158023809D01*
X140333333Y-158071428D01*
X140523809Y-158071428D01*
X140619047Y-158023809D01*
X140666666Y-157976190D01*
X140714285Y-157880952D01*
X141095238Y-157547619D02*
X141142857Y-157500000D01*
X141238095Y-157452380D01*
X141476190Y-157452380D01*
X141571428Y-157500000D01*
X141619047Y-157547619D01*
X141666666Y-157642857D01*
X141666666Y-157738095D01*
X141619047Y-157880952D01*
X141047619Y-158452380D01*
X141666666Y-158452380D01*
X158119047Y-157547619D02*
X158166666Y-157500000D01*
X158261904Y-157452380D01*
X158500000Y-157452380D01*
X158595238Y-157500000D01*
X158642857Y-157547619D01*
X158690476Y-157642857D01*
X158690476Y-157738095D01*
X158642857Y-157880952D01*
X158071428Y-158452380D01*
X158690476Y-158452380D01*
X159880952Y-158071428D02*
X160642857Y-158071428D01*
X161785714Y-157452380D02*
X162404761Y-157452380D01*
X162071428Y-157833333D01*
X162214285Y-157833333D01*
X162309523Y-157880952D01*
X162357142Y-157928571D01*
X162404761Y-158023809D01*
X162404761Y-158261904D01*
X162357142Y-158357142D01*
X162309523Y-158404761D01*
X162214285Y-158452380D01*
X161928571Y-158452380D01*
X161833333Y-158404761D01*
X161785714Y-158357142D01*
X163595238Y-157928571D02*
X164357142Y-157928571D01*
X164357142Y-158214285D02*
X163595238Y-158214285D01*
X165500000Y-157452380D02*
X166166666Y-157452380D01*
X165738095Y-158452380D01*
X167309523Y-158452380D02*
X167309523Y-157452380D01*
X167642857Y-158166666D01*
X167976190Y-157452380D01*
X167976190Y-158452380D01*
X168452380Y-158452380D02*
X168452380Y-157452380D01*
X168452380Y-157928571D02*
X169023809Y-157928571D01*
X169023809Y-158452380D02*
X169023809Y-157452380D01*
X169404761Y-157785714D02*
X169928571Y-157785714D01*
X169404761Y-158452380D01*
X169928571Y-158452380D01*
X155480952Y-155902380D02*
X155480952Y-156616666D01*
X155433333Y-156759523D01*
X155338095Y-156854761D01*
X155195238Y-156902380D01*
X155100000Y-156902380D01*
X156480952Y-156902380D02*
X155909523Y-156902380D01*
X156195238Y-156902380D02*
X156195238Y-155902380D01*
X156100000Y-156045238D01*
X156004761Y-156140476D01*
X155909523Y-156188095D01*
X156909523Y-156807142D02*
X156957142Y-156854761D01*
X156909523Y-156902380D01*
X156861904Y-156854761D01*
X156909523Y-156807142D01*
X156909523Y-156902380D01*
X156909523Y-156283333D02*
X156957142Y-156330952D01*
X156909523Y-156378571D01*
X156861904Y-156330952D01*
X156909523Y-156283333D01*
X156909523Y-156378571D01*
X158671428Y-156902380D02*
X158100000Y-156902380D01*
X158385714Y-156902380D02*
X158385714Y-155902380D01*
X158290476Y-156045238D01*
X158195238Y-156140476D01*
X158100000Y-156188095D01*
X159861904Y-156521428D02*
X160623809Y-156521428D01*
X161814285Y-155997619D02*
X161861904Y-155950000D01*
X161957142Y-155902380D01*
X162195238Y-155902380D01*
X162290476Y-155950000D01*
X162338095Y-155997619D01*
X162385714Y-156092857D01*
X162385714Y-156188095D01*
X162338095Y-156330952D01*
X161766666Y-156902380D01*
X162385714Y-156902380D01*
X163576190Y-156378571D02*
X164338095Y-156378571D01*
X164338095Y-156664285D02*
X163576190Y-156664285D01*
X166100000Y-156902380D02*
X165528571Y-156902380D01*
X165814285Y-156902380D02*
X165814285Y-155902380D01*
X165719047Y-156045238D01*
X165623809Y-156140476D01*
X165528571Y-156188095D01*
X166957142Y-156235714D02*
X166957142Y-156902380D01*
X166719047Y-155854761D02*
X166480952Y-156569047D01*
X167100000Y-156569047D01*
X167480952Y-156902380D02*
X167480952Y-155902380D01*
X167814285Y-156616666D01*
X168147619Y-155902380D01*
X168147619Y-156902380D01*
X168623809Y-156902380D02*
X168623809Y-155902380D01*
X168623809Y-156378571D02*
X169195238Y-156378571D01*
X169195238Y-156902380D02*
X169195238Y-155902380D01*
X169576190Y-156235714D02*
X170100000Y-156235714D01*
X169576190Y-156902380D01*
X170100000Y-156902380D01*
X86793829Y-136531380D02*
X86222400Y-136531380D01*
X86508114Y-136531380D02*
X86633114Y-135531380D01*
X86520019Y-135674238D01*
X86412876Y-135769476D01*
X86311686Y-135817095D01*
X119963586Y-116657380D02*
X120088586Y-115657380D01*
X120029062Y-116133571D02*
X120600491Y-116133571D01*
X120535014Y-116657380D02*
X120660014Y-115657380D01*
X121398110Y-116609761D02*
X121296919Y-116657380D01*
X121106443Y-116657380D01*
X121017157Y-116609761D01*
X120981443Y-116514523D01*
X121029062Y-116133571D01*
X121088586Y-116038333D01*
X121189776Y-115990714D01*
X121380252Y-115990714D01*
X121469538Y-116038333D01*
X121505252Y-116133571D01*
X121493348Y-116228809D01*
X121005252Y-116324047D01*
X122011205Y-116657380D02*
X121921919Y-116609761D01*
X121886205Y-116514523D01*
X121993348Y-115657380D01*
X122535014Y-116657380D02*
X122445729Y-116609761D01*
X122410014Y-116514523D01*
X122517157Y-115657380D01*
X123058824Y-116657380D02*
X122969538Y-116609761D01*
X122927872Y-116562142D01*
X122892157Y-116466904D01*
X122927872Y-116181190D01*
X122987395Y-116085952D01*
X123040967Y-116038333D01*
X123142157Y-115990714D01*
X123285014Y-115990714D01*
X123374300Y-116038333D01*
X123415967Y-116085952D01*
X123451681Y-116181190D01*
X123415967Y-116466904D01*
X123356443Y-116562142D01*
X123302872Y-116609761D01*
X123201681Y-116657380D01*
X123058824Y-116657380D01*
X125165967Y-116562142D02*
X125112395Y-116609761D01*
X124963586Y-116657380D01*
X124868348Y-116657380D01*
X124731443Y-116609761D01*
X124648110Y-116514523D01*
X124612395Y-116419285D01*
X124588586Y-116228809D01*
X124606443Y-116085952D01*
X124677872Y-115895476D01*
X124737395Y-115800238D01*
X124844538Y-115705000D01*
X124993348Y-115657380D01*
X125088586Y-115657380D01*
X125225491Y-115705000D01*
X125267157Y-115752619D01*
X126011205Y-116657380D02*
X126076681Y-116133571D01*
X126040967Y-116038333D01*
X125951681Y-115990714D01*
X125761205Y-115990714D01*
X125660014Y-116038333D01*
X126017157Y-116609761D02*
X125915967Y-116657380D01*
X125677872Y-116657380D01*
X125588586Y-116609761D01*
X125552872Y-116514523D01*
X125564776Y-116419285D01*
X125624300Y-116324047D01*
X125725491Y-116276428D01*
X125963586Y-116276428D01*
X126064776Y-116228809D01*
X126475491Y-115990714D02*
X126630252Y-116657380D01*
X126951681Y-115990714D01*
X127636205Y-116609761D02*
X127535014Y-116657380D01*
X127344538Y-116657380D01*
X127255252Y-116609761D01*
X127219538Y-116514523D01*
X127267157Y-116133571D01*
X127326681Y-116038333D01*
X127427872Y-115990714D01*
X127618348Y-115990714D01*
X127707633Y-116038333D01*
X127743348Y-116133571D01*
X127731443Y-116228809D01*
X127243348Y-116324047D01*
X128868348Y-116657380D02*
X128993348Y-115657380D01*
X129231443Y-115657380D01*
X129368348Y-115705000D01*
X129451681Y-115800238D01*
X129487395Y-115895476D01*
X129511205Y-116085952D01*
X129493348Y-116228809D01*
X129421919Y-116419285D01*
X129362395Y-116514523D01*
X129255252Y-116609761D01*
X129106443Y-116657380D01*
X128868348Y-116657380D01*
X129856443Y-115990714D02*
X129963586Y-116657380D01*
X130213586Y-116181190D01*
X130344538Y-116657380D01*
X130618348Y-115990714D01*
X131302872Y-116609761D02*
X131201681Y-116657380D01*
X131011205Y-116657380D01*
X130921919Y-116609761D01*
X130886205Y-116514523D01*
X130933824Y-116133571D01*
X130993348Y-116038333D01*
X131094538Y-115990714D01*
X131285014Y-115990714D01*
X131374300Y-116038333D01*
X131410014Y-116133571D01*
X131398110Y-116228809D01*
X130910014Y-116324047D01*
X131915967Y-116657380D02*
X131826681Y-116609761D01*
X131790967Y-116514523D01*
X131898110Y-115657380D01*
X132439776Y-116657380D02*
X132350491Y-116609761D01*
X132314776Y-116514523D01*
X132421919Y-115657380D01*
X133207633Y-116609761D02*
X133106443Y-116657380D01*
X132915967Y-116657380D01*
X132826681Y-116609761D01*
X132790967Y-116514523D01*
X132838586Y-116133571D01*
X132898110Y-116038333D01*
X132999300Y-115990714D01*
X133189776Y-115990714D01*
X133279062Y-116038333D01*
X133314776Y-116133571D01*
X133302872Y-116228809D01*
X132814776Y-116324047D01*
X133677872Y-116657380D02*
X133761205Y-115990714D01*
X133737395Y-116181190D02*
X133796919Y-116085952D01*
X133850491Y-116038333D01*
X133951681Y-115990714D01*
X134046919Y-115990714D01*
X134255252Y-116609761D02*
X134344538Y-116657380D01*
X134535014Y-116657380D01*
X134636205Y-116609761D01*
X134695729Y-116514523D01*
X134701681Y-116466904D01*
X134665967Y-116371666D01*
X134576681Y-116324047D01*
X134433824Y-116324047D01*
X134344538Y-116276428D01*
X134308824Y-116181190D01*
X134314776Y-116133571D01*
X134374300Y-116038333D01*
X134475491Y-115990714D01*
X134618348Y-115990714D01*
X134707633Y-116038333D01*
X135118348Y-116562142D02*
X135160014Y-116609761D01*
X135106443Y-116657380D01*
X135064776Y-116609761D01*
X135118348Y-116562142D01*
X135106443Y-116657380D01*
X135154062Y-116276428D02*
X135177872Y-115705000D01*
X135231443Y-115657380D01*
X135273110Y-115705000D01*
X135154062Y-116276428D01*
X135231443Y-115657380D01*
X177844333Y-144220980D02*
X178511000Y-144220980D01*
X178082428Y-145220980D01*
X179320523Y-144554314D02*
X179320523Y-145220980D01*
X179082428Y-144173361D02*
X178844333Y-144887647D01*
X179463380Y-144887647D01*
X179844333Y-145220980D02*
X179844333Y-144220980D01*
X179844333Y-144697171D02*
X180415761Y-144697171D01*
X180415761Y-145220980D02*
X180415761Y-144220980D01*
X181463380Y-145125742D02*
X181415761Y-145173361D01*
X181272904Y-145220980D01*
X181177666Y-145220980D01*
X181034809Y-145173361D01*
X180939571Y-145078123D01*
X180891952Y-144982885D01*
X180844333Y-144792409D01*
X180844333Y-144649552D01*
X180891952Y-144459076D01*
X180939571Y-144363838D01*
X181034809Y-144268600D01*
X181177666Y-144220980D01*
X181272904Y-144220980D01*
X181415761Y-144268600D01*
X181463380Y-144316219D01*
X181749095Y-144220980D02*
X182320523Y-144220980D01*
X182034809Y-145220980D02*
X182034809Y-144220980D01*
X182558619Y-144220980D02*
X183225285Y-144220980D01*
X182796714Y-145220980D01*
X184034809Y-144554314D02*
X184034809Y-145220980D01*
X183796714Y-144173361D02*
X183558619Y-144887647D01*
X184177666Y-144887647D01*
X152264619Y-132301157D02*
X152264619Y-132967824D01*
X151264619Y-132414252D01*
X151931285Y-133735681D02*
X151264619Y-133652348D01*
X152312238Y-133545205D02*
X151597952Y-133217824D01*
X151597952Y-133836872D01*
X151264619Y-134176157D02*
X152264619Y-134301157D01*
X151788428Y-134241633D02*
X151788428Y-134813062D01*
X151264619Y-134747586D02*
X152264619Y-134872586D01*
X151359857Y-135807110D02*
X151312238Y-135753538D01*
X151264619Y-135604729D01*
X151264619Y-135509491D01*
X151312238Y-135372586D01*
X151407476Y-135289252D01*
X151502714Y-135253538D01*
X151693190Y-135229729D01*
X151836047Y-135247586D01*
X152026523Y-135319014D01*
X152121761Y-135378538D01*
X152217000Y-135485681D01*
X152264619Y-135634491D01*
X152264619Y-135729729D01*
X152217000Y-135866633D01*
X152169380Y-135908300D01*
X152264619Y-136205919D02*
X152264619Y-136777348D01*
X151264619Y-136366633D02*
X152264619Y-136491633D01*
X151264619Y-137509491D02*
X151264619Y-136938062D01*
X151264619Y-137223776D02*
X152264619Y-137348776D01*
X152121761Y-137235681D01*
X152026523Y-137128538D01*
X151978904Y-137027348D01*
X152264619Y-138539252D02*
X152264619Y-138063062D01*
X151788428Y-137955919D01*
X151836047Y-138009491D01*
X151883666Y-138110681D01*
X151883666Y-138348776D01*
X151836047Y-138438062D01*
X151788428Y-138479729D01*
X151693190Y-138515443D01*
X151455095Y-138485681D01*
X151359857Y-138426157D01*
X151312238Y-138372586D01*
X151264619Y-138271395D01*
X151264619Y-138033300D01*
X151312238Y-137944014D01*
X151359857Y-137902348D01*
X152264619Y-138920205D02*
X152264619Y-139586872D01*
X151264619Y-139033300D01*
X139564619Y-132272157D02*
X139564619Y-132938824D01*
X138564619Y-132385252D01*
X139231285Y-133706681D02*
X138564619Y-133623348D01*
X139612238Y-133516205D02*
X138897952Y-133188824D01*
X138897952Y-133807872D01*
X138564619Y-134147157D02*
X139564619Y-134272157D01*
X139088428Y-134212633D02*
X139088428Y-134784062D01*
X138564619Y-134718586D02*
X139564619Y-134843586D01*
X138659857Y-135778110D02*
X138612238Y-135724538D01*
X138564619Y-135575729D01*
X138564619Y-135480491D01*
X138612238Y-135343586D01*
X138707476Y-135260252D01*
X138802714Y-135224538D01*
X138993190Y-135200729D01*
X139136047Y-135218586D01*
X139326523Y-135290014D01*
X139421761Y-135349538D01*
X139517000Y-135456681D01*
X139564619Y-135605491D01*
X139564619Y-135700729D01*
X139517000Y-135837633D01*
X139469380Y-135879300D01*
X139564619Y-136176919D02*
X139564619Y-136748348D01*
X138564619Y-136337633D02*
X139564619Y-136462633D01*
X138564619Y-137480491D02*
X138564619Y-136909062D01*
X138564619Y-137194776D02*
X139564619Y-137319776D01*
X139421761Y-137206681D01*
X139326523Y-137099538D01*
X139278904Y-136998348D01*
X139564619Y-138510252D02*
X139564619Y-138034062D01*
X139088428Y-137926919D01*
X139136047Y-137980491D01*
X139183666Y-138081681D01*
X139183666Y-138319776D01*
X139136047Y-138409062D01*
X139088428Y-138450729D01*
X138993190Y-138486443D01*
X138755095Y-138456681D01*
X138659857Y-138397157D01*
X138612238Y-138343586D01*
X138564619Y-138242395D01*
X138564619Y-138004300D01*
X138612238Y-137915014D01*
X138659857Y-137873348D01*
X139564619Y-138891205D02*
X139564619Y-139557872D01*
X138564619Y-139004300D01*
X177833348Y-131532380D02*
X178500014Y-131532380D01*
X177946443Y-132532380D01*
X179267872Y-131865714D02*
X179184538Y-132532380D01*
X179077395Y-131484761D02*
X178750014Y-132199047D01*
X179369062Y-132199047D01*
X179708348Y-132532380D02*
X179833348Y-131532380D01*
X179773824Y-132008571D02*
X180345252Y-132008571D01*
X180279776Y-132532380D02*
X180404776Y-131532380D01*
X181339300Y-132437142D02*
X181285729Y-132484761D01*
X181136919Y-132532380D01*
X181041681Y-132532380D01*
X180904776Y-132484761D01*
X180821443Y-132389523D01*
X180785729Y-132294285D01*
X180761919Y-132103809D01*
X180779776Y-131960952D01*
X180851205Y-131770476D01*
X180910729Y-131675238D01*
X181017872Y-131580000D01*
X181166681Y-131532380D01*
X181261919Y-131532380D01*
X181398824Y-131580000D01*
X181440491Y-131627619D01*
X181738110Y-131532380D02*
X182309538Y-131532380D01*
X181898824Y-132532380D02*
X182023824Y-131532380D01*
X182833348Y-131532380D02*
X182928586Y-131532380D01*
X183017872Y-131580000D01*
X183059538Y-131627619D01*
X183095252Y-131722857D01*
X183119062Y-131913333D01*
X183089300Y-132151428D01*
X183017872Y-132341904D01*
X182958348Y-132437142D01*
X182904776Y-132484761D01*
X182803586Y-132532380D01*
X182708348Y-132532380D01*
X182619062Y-132484761D01*
X182577395Y-132437142D01*
X182541681Y-132341904D01*
X182517872Y-132151428D01*
X182547633Y-131913333D01*
X182619062Y-131722857D01*
X182678586Y-131627619D01*
X182732157Y-131580000D01*
X182833348Y-131532380D01*
X183982157Y-131865714D02*
X183898824Y-132532380D01*
X183791681Y-131484761D02*
X183464300Y-132199047D01*
X184083348Y-132199047D01*
X126864619Y-132301157D02*
X126864619Y-132967824D01*
X125864619Y-132414252D01*
X126531285Y-133735681D02*
X125864619Y-133652348D01*
X126912238Y-133545205D02*
X126197952Y-133217824D01*
X126197952Y-133836872D01*
X125864619Y-134176157D02*
X126864619Y-134301157D01*
X126388428Y-134241633D02*
X126388428Y-134813062D01*
X125864619Y-134747586D02*
X126864619Y-134872586D01*
X125959857Y-135807110D02*
X125912238Y-135753538D01*
X125864619Y-135604729D01*
X125864619Y-135509491D01*
X125912238Y-135372586D01*
X126007476Y-135289252D01*
X126102714Y-135253538D01*
X126293190Y-135229729D01*
X126436047Y-135247586D01*
X126626523Y-135319014D01*
X126721761Y-135378538D01*
X126817000Y-135485681D01*
X126864619Y-135634491D01*
X126864619Y-135729729D01*
X126817000Y-135866633D01*
X126769380Y-135908300D01*
X126864619Y-136205919D02*
X126864619Y-136777348D01*
X125864619Y-136366633D02*
X126864619Y-136491633D01*
X125864619Y-137509491D02*
X125864619Y-136938062D01*
X125864619Y-137223776D02*
X126864619Y-137348776D01*
X126721761Y-137235681D01*
X126626523Y-137128538D01*
X126578904Y-137027348D01*
X125864619Y-138461872D02*
X125864619Y-137890443D01*
X125864619Y-138176157D02*
X126864619Y-138301157D01*
X126721761Y-138188062D01*
X126626523Y-138080919D01*
X126578904Y-137979729D01*
X126769380Y-138955919D02*
X126817000Y-139009491D01*
X126864619Y-139110681D01*
X126864619Y-139348776D01*
X126817000Y-139438062D01*
X126769380Y-139479729D01*
X126674142Y-139515443D01*
X126578904Y-139503538D01*
X126436047Y-139438062D01*
X125864619Y-138795205D01*
X125864619Y-139414252D01*
X177856748Y-118828880D02*
X178523414Y-118828880D01*
X177969843Y-119828880D01*
X179291272Y-119162214D02*
X179207938Y-119828880D01*
X179100795Y-118781261D02*
X178773414Y-119495547D01*
X179392462Y-119495547D01*
X179731748Y-119828880D02*
X179856748Y-118828880D01*
X179797224Y-119305071D02*
X180368652Y-119305071D01*
X180303176Y-119828880D02*
X180428176Y-118828880D01*
X181362700Y-119733642D02*
X181309129Y-119781261D01*
X181160319Y-119828880D01*
X181065081Y-119828880D01*
X180928176Y-119781261D01*
X180844843Y-119686023D01*
X180809129Y-119590785D01*
X180785319Y-119400309D01*
X180803176Y-119257452D01*
X180874605Y-119066976D01*
X180934129Y-118971738D01*
X181041272Y-118876500D01*
X181190081Y-118828880D01*
X181285319Y-118828880D01*
X181422224Y-118876500D01*
X181463891Y-118924119D01*
X181761510Y-118828880D02*
X182332938Y-118828880D01*
X181922224Y-119828880D02*
X182047224Y-118828880D01*
X182606748Y-118924119D02*
X182660319Y-118876500D01*
X182761510Y-118828880D01*
X182999605Y-118828880D01*
X183088891Y-118876500D01*
X183130557Y-118924119D01*
X183166272Y-119019357D01*
X183154367Y-119114595D01*
X183088891Y-119257452D01*
X182446033Y-119828880D01*
X183065081Y-119828880D01*
X183523414Y-118828880D02*
X184190081Y-118828880D01*
X183636510Y-119828880D01*
X177849648Y-106129580D02*
X178516314Y-106129580D01*
X177962743Y-107129580D01*
X179284172Y-106462914D02*
X179200838Y-107129580D01*
X179093695Y-106081961D02*
X178766314Y-106796247D01*
X179385362Y-106796247D01*
X179724648Y-107129580D02*
X179849648Y-106129580D01*
X179790124Y-106605771D02*
X180361552Y-106605771D01*
X180296076Y-107129580D02*
X180421076Y-106129580D01*
X181355600Y-107034342D02*
X181302029Y-107081961D01*
X181153219Y-107129580D01*
X181057981Y-107129580D01*
X180921076Y-107081961D01*
X180837743Y-106986723D01*
X180802029Y-106891485D01*
X180778219Y-106701009D01*
X180796076Y-106558152D01*
X180867505Y-106367676D01*
X180927029Y-106272438D01*
X181034172Y-106177200D01*
X181182981Y-106129580D01*
X181278219Y-106129580D01*
X181415124Y-106177200D01*
X181456791Y-106224819D01*
X181754410Y-106129580D02*
X182325838Y-106129580D01*
X181915124Y-107129580D02*
X182040124Y-106129580D01*
X182563933Y-106129580D02*
X183230600Y-106129580D01*
X182677029Y-107129580D01*
X183998457Y-106462914D02*
X183915124Y-107129580D01*
X183807981Y-106081961D02*
X183480600Y-106796247D01*
X184099648Y-106796247D01*
X177843948Y-93433680D02*
X178510614Y-93433680D01*
X177957043Y-94433680D01*
X179278472Y-93767014D02*
X179195138Y-94433680D01*
X179087995Y-93386061D02*
X178760614Y-94100347D01*
X179379662Y-94100347D01*
X179718948Y-94433680D02*
X179843948Y-93433680D01*
X179784424Y-93909871D02*
X180355852Y-93909871D01*
X180290376Y-94433680D02*
X180415376Y-93433680D01*
X181349900Y-94338442D02*
X181296329Y-94386061D01*
X181147519Y-94433680D01*
X181052281Y-94433680D01*
X180915376Y-94386061D01*
X180832043Y-94290823D01*
X180796329Y-94195585D01*
X180772519Y-94005109D01*
X180790376Y-93862252D01*
X180861805Y-93671776D01*
X180921329Y-93576538D01*
X181028472Y-93481300D01*
X181177281Y-93433680D01*
X181272519Y-93433680D01*
X181409424Y-93481300D01*
X181451091Y-93528919D01*
X181748710Y-93433680D02*
X182320138Y-93433680D01*
X181909424Y-94433680D02*
X182034424Y-93433680D01*
X182742757Y-93862252D02*
X182653472Y-93814633D01*
X182611805Y-93767014D01*
X182576091Y-93671776D01*
X182582043Y-93624157D01*
X182641567Y-93528919D01*
X182695138Y-93481300D01*
X182796329Y-93433680D01*
X182986805Y-93433680D01*
X183076091Y-93481300D01*
X183117757Y-93528919D01*
X183153472Y-93624157D01*
X183147519Y-93671776D01*
X183087995Y-93767014D01*
X183034424Y-93814633D01*
X182933233Y-93862252D01*
X182742757Y-93862252D01*
X182641567Y-93909871D01*
X182587995Y-93957490D01*
X182528472Y-94052728D01*
X182504662Y-94243204D01*
X182540376Y-94338442D01*
X182582043Y-94386061D01*
X182671329Y-94433680D01*
X182861805Y-94433680D01*
X182962995Y-94386061D01*
X183016567Y-94338442D01*
X183076091Y-94243204D01*
X183099900Y-94052728D01*
X183064186Y-93957490D01*
X183022519Y-93909871D01*
X182933233Y-93862252D01*
X184034424Y-93433680D02*
X183843948Y-93433680D01*
X183742757Y-93481300D01*
X183689186Y-93528919D01*
X183576091Y-93671776D01*
X183504662Y-93862252D01*
X183457043Y-94243204D01*
X183492757Y-94338442D01*
X183534424Y-94386061D01*
X183623710Y-94433680D01*
X183814186Y-94433680D01*
X183915376Y-94386061D01*
X183968948Y-94338442D01*
X184028472Y-94243204D01*
X184058233Y-94005109D01*
X184022519Y-93909871D01*
X183980852Y-93862252D01*
X183891567Y-93814633D01*
X183701091Y-93814633D01*
X183599900Y-93862252D01*
X183546329Y-93909871D01*
X183486805Y-94005109D01*
X124320729Y-101227380D02*
X124445729Y-100227380D01*
X124689776Y-100941666D01*
X125112395Y-100227380D01*
X124987395Y-101227380D01*
X126046919Y-101132142D02*
X125993348Y-101179761D01*
X125844538Y-101227380D01*
X125749300Y-101227380D01*
X125612395Y-101179761D01*
X125529062Y-101084523D01*
X125493348Y-100989285D01*
X125469538Y-100798809D01*
X125487395Y-100655952D01*
X125558824Y-100465476D01*
X125618348Y-100370238D01*
X125725491Y-100275000D01*
X125874300Y-100227380D01*
X125969538Y-100227380D01*
X126106443Y-100275000D01*
X126148110Y-100322619D01*
X127017157Y-100227380D02*
X126826681Y-100227380D01*
X126725491Y-100275000D01*
X126671919Y-100322619D01*
X126558824Y-100465476D01*
X126487395Y-100655952D01*
X126439776Y-101036904D01*
X126475491Y-101132142D01*
X126517157Y-101179761D01*
X126606443Y-101227380D01*
X126796919Y-101227380D01*
X126898110Y-101179761D01*
X126951681Y-101132142D01*
X127011205Y-101036904D01*
X127040967Y-100798809D01*
X127005252Y-100703571D01*
X126963586Y-100655952D01*
X126874300Y-100608333D01*
X126683824Y-100608333D01*
X126582633Y-100655952D01*
X126529062Y-100703571D01*
X126469538Y-100798809D01*
X127630252Y-100655952D02*
X127540967Y-100608333D01*
X127499300Y-100560714D01*
X127463586Y-100465476D01*
X127469538Y-100417857D01*
X127529062Y-100322619D01*
X127582633Y-100275000D01*
X127683824Y-100227380D01*
X127874300Y-100227380D01*
X127963586Y-100275000D01*
X128005252Y-100322619D01*
X128040967Y-100417857D01*
X128035014Y-100465476D01*
X127975491Y-100560714D01*
X127921919Y-100608333D01*
X127820729Y-100655952D01*
X127630252Y-100655952D01*
X127529062Y-100703571D01*
X127475491Y-100751190D01*
X127415967Y-100846428D01*
X127392157Y-101036904D01*
X127427872Y-101132142D01*
X127469538Y-101179761D01*
X127558824Y-101227380D01*
X127749300Y-101227380D01*
X127850491Y-101179761D01*
X127904062Y-101132142D01*
X127963586Y-101036904D01*
X127987395Y-100846428D01*
X127951681Y-100751190D01*
X127910014Y-100703571D01*
X127820729Y-100655952D01*
X128683824Y-100227380D02*
X128779062Y-100227380D01*
X128868348Y-100275000D01*
X128910014Y-100322619D01*
X128945729Y-100417857D01*
X128969538Y-100608333D01*
X128939776Y-100846428D01*
X128868348Y-101036904D01*
X128808824Y-101132142D01*
X128755252Y-101179761D01*
X128654062Y-101227380D01*
X128558824Y-101227380D01*
X128469538Y-101179761D01*
X128427872Y-101132142D01*
X128392157Y-101036904D01*
X128368348Y-100846428D01*
X128398110Y-100608333D01*
X128469538Y-100417857D01*
X128529062Y-100322619D01*
X128582633Y-100275000D01*
X128683824Y-100227380D01*
X129636205Y-100227380D02*
X129731443Y-100227380D01*
X129820729Y-100275000D01*
X129862395Y-100322619D01*
X129898110Y-100417857D01*
X129921919Y-100608333D01*
X129892157Y-100846428D01*
X129820729Y-101036904D01*
X129761205Y-101132142D01*
X129707633Y-101179761D01*
X129606443Y-101227380D01*
X129511205Y-101227380D01*
X129421919Y-101179761D01*
X129380252Y-101132142D01*
X129344538Y-101036904D01*
X129320729Y-100846428D01*
X129350491Y-100608333D01*
X129421919Y-100417857D01*
X129481443Y-100322619D01*
X129535014Y-100275000D01*
X129636205Y-100227380D01*
X130588586Y-100227380D02*
X130683824Y-100227380D01*
X130773110Y-100275000D01*
X130814776Y-100322619D01*
X130850491Y-100417857D01*
X130874300Y-100608333D01*
X130844538Y-100846428D01*
X130773110Y-101036904D01*
X130713586Y-101132142D01*
X130660014Y-101179761D01*
X130558824Y-101227380D01*
X130463586Y-101227380D01*
X130374300Y-101179761D01*
X130332633Y-101132142D01*
X130296919Y-101036904D01*
X130273110Y-100846428D01*
X130302872Y-100608333D01*
X130374300Y-100417857D01*
X130433824Y-100322619D01*
X130487395Y-100275000D01*
X130588586Y-100227380D01*
X124481443Y-102353571D02*
X124618348Y-102401190D01*
X124660014Y-102448809D01*
X124695729Y-102544047D01*
X124677872Y-102686904D01*
X124618348Y-102782142D01*
X124564776Y-102829761D01*
X124463586Y-102877380D01*
X124082633Y-102877380D01*
X124207633Y-101877380D01*
X124540967Y-101877380D01*
X124630252Y-101925000D01*
X124671919Y-101972619D01*
X124707633Y-102067857D01*
X124695729Y-102163095D01*
X124636205Y-102258333D01*
X124582633Y-102305952D01*
X124481443Y-102353571D01*
X124148110Y-102353571D01*
X125225491Y-102877380D02*
X125136205Y-102829761D01*
X125094538Y-102782142D01*
X125058824Y-102686904D01*
X125094538Y-102401190D01*
X125154062Y-102305952D01*
X125207633Y-102258333D01*
X125308824Y-102210714D01*
X125451681Y-102210714D01*
X125540967Y-102258333D01*
X125582633Y-102305952D01*
X125618348Y-102401190D01*
X125582633Y-102686904D01*
X125523110Y-102782142D01*
X125469538Y-102829761D01*
X125368348Y-102877380D01*
X125225491Y-102877380D01*
X126415967Y-102877380D02*
X126481443Y-102353571D01*
X126445729Y-102258333D01*
X126356443Y-102210714D01*
X126165967Y-102210714D01*
X126064776Y-102258333D01*
X126421919Y-102829761D02*
X126320729Y-102877380D01*
X126082633Y-102877380D01*
X125993348Y-102829761D01*
X125957633Y-102734523D01*
X125969538Y-102639285D01*
X126029062Y-102544047D01*
X126130252Y-102496428D01*
X126368348Y-102496428D01*
X126469538Y-102448809D01*
X126892157Y-102877380D02*
X126975491Y-102210714D01*
X126951681Y-102401190D02*
X127011205Y-102305952D01*
X127064776Y-102258333D01*
X127165967Y-102210714D01*
X127261205Y-102210714D01*
X127939776Y-102877380D02*
X128064776Y-101877380D01*
X127945729Y-102829761D02*
X127844538Y-102877380D01*
X127654062Y-102877380D01*
X127564776Y-102829761D01*
X127523110Y-102782142D01*
X127487395Y-102686904D01*
X127523110Y-102401190D01*
X127582633Y-102305952D01*
X127636205Y-102258333D01*
X127737395Y-102210714D01*
X127927872Y-102210714D01*
X128017157Y-102258333D01*
X128374300Y-102829761D02*
X128463586Y-102877380D01*
X128654062Y-102877380D01*
X128755252Y-102829761D01*
X128814776Y-102734523D01*
X128820729Y-102686904D01*
X128785014Y-102591666D01*
X128695729Y-102544047D01*
X128552872Y-102544047D01*
X128463586Y-102496428D01*
X128427872Y-102401190D01*
X128433824Y-102353571D01*
X128493348Y-102258333D01*
X128594538Y-102210714D01*
X128737395Y-102210714D01*
X128826681Y-102258333D01*
X129225491Y-102877380D02*
X129308824Y-102210714D01*
X129350491Y-101877380D02*
X129296919Y-101925000D01*
X129338586Y-101972619D01*
X129392157Y-101925000D01*
X129350491Y-101877380D01*
X129338586Y-101972619D01*
X130130252Y-102877380D02*
X130255252Y-101877380D01*
X130136205Y-102829761D02*
X130035014Y-102877380D01*
X129844538Y-102877380D01*
X129755252Y-102829761D01*
X129713586Y-102782142D01*
X129677872Y-102686904D01*
X129713586Y-102401190D01*
X129773110Y-102305952D01*
X129826681Y-102258333D01*
X129927872Y-102210714D01*
X130118348Y-102210714D01*
X130207633Y-102258333D01*
X130993348Y-102829761D02*
X130892157Y-102877380D01*
X130701681Y-102877380D01*
X130612395Y-102829761D01*
X130576681Y-102734523D01*
X130624300Y-102353571D01*
X130683824Y-102258333D01*
X130785014Y-102210714D01*
X130975491Y-102210714D01*
X131064776Y-102258333D01*
X131100491Y-102353571D01*
X131088586Y-102448809D01*
X130600491Y-102544047D01*
X95959538Y-136627380D02*
X96084538Y-135627380D01*
X96328586Y-136341666D01*
X96751205Y-135627380D01*
X96626205Y-136627380D01*
X97685729Y-136532142D02*
X97632157Y-136579761D01*
X97483348Y-136627380D01*
X97388110Y-136627380D01*
X97251205Y-136579761D01*
X97167872Y-136484523D01*
X97132157Y-136389285D01*
X97108348Y-136198809D01*
X97126205Y-136055952D01*
X97197633Y-135865476D01*
X97257157Y-135770238D01*
X97364300Y-135675000D01*
X97513110Y-135627380D01*
X97608348Y-135627380D01*
X97745252Y-135675000D01*
X97786919Y-135722619D01*
X98655967Y-135627380D02*
X98465491Y-135627380D01*
X98364300Y-135675000D01*
X98310729Y-135722619D01*
X98197633Y-135865476D01*
X98126205Y-136055952D01*
X98078586Y-136436904D01*
X98114300Y-136532142D01*
X98155967Y-136579761D01*
X98245252Y-136627380D01*
X98435729Y-136627380D01*
X98536919Y-136579761D01*
X98590491Y-136532142D01*
X98650014Y-136436904D01*
X98679776Y-136198809D01*
X98644062Y-136103571D01*
X98602395Y-136055952D01*
X98513110Y-136008333D01*
X98322633Y-136008333D01*
X98221443Y-136055952D01*
X98167872Y-136103571D01*
X98108348Y-136198809D01*
X99269062Y-136055952D02*
X99179776Y-136008333D01*
X99138110Y-135960714D01*
X99102395Y-135865476D01*
X99108348Y-135817857D01*
X99167872Y-135722619D01*
X99221443Y-135675000D01*
X99322633Y-135627380D01*
X99513110Y-135627380D01*
X99602395Y-135675000D01*
X99644062Y-135722619D01*
X99679776Y-135817857D01*
X99673824Y-135865476D01*
X99614300Y-135960714D01*
X99560729Y-136008333D01*
X99459538Y-136055952D01*
X99269062Y-136055952D01*
X99167872Y-136103571D01*
X99114300Y-136151190D01*
X99054776Y-136246428D01*
X99030967Y-136436904D01*
X99066681Y-136532142D01*
X99108348Y-136579761D01*
X99197633Y-136627380D01*
X99388110Y-136627380D01*
X99489300Y-136579761D01*
X99542872Y-136532142D01*
X99602395Y-136436904D01*
X99626205Y-136246428D01*
X99590491Y-136151190D01*
X99548824Y-136103571D01*
X99459538Y-136055952D01*
X100007157Y-136627380D02*
X100132157Y-135627380D01*
X100072633Y-136103571D02*
X100644062Y-136103571D01*
X100578586Y-136627380D02*
X100703586Y-135627380D01*
X101638110Y-136532142D02*
X101584538Y-136579761D01*
X101435729Y-136627380D01*
X101340491Y-136627380D01*
X101203586Y-136579761D01*
X101120252Y-136484523D01*
X101084538Y-136389285D01*
X101060729Y-136198809D01*
X101078586Y-136055952D01*
X101150014Y-135865476D01*
X101209538Y-135770238D01*
X101316681Y-135675000D01*
X101465491Y-135627380D01*
X101560729Y-135627380D01*
X101697633Y-135675000D01*
X101739300Y-135722619D01*
X102370252Y-135627380D02*
X102465491Y-135627380D01*
X102554776Y-135675000D01*
X102596443Y-135722619D01*
X102632157Y-135817857D01*
X102655967Y-136008333D01*
X102626205Y-136246428D01*
X102554776Y-136436904D01*
X102495252Y-136532142D01*
X102441681Y-136579761D01*
X102340491Y-136627380D01*
X102245252Y-136627380D01*
X102155967Y-136579761D01*
X102114300Y-136532142D01*
X102078586Y-136436904D01*
X102054776Y-136246428D01*
X102084538Y-136008333D01*
X102155967Y-135817857D01*
X102215491Y-135722619D01*
X102269062Y-135675000D01*
X102370252Y-135627380D01*
X103322633Y-135627380D02*
X103417872Y-135627380D01*
X103507157Y-135675000D01*
X103548824Y-135722619D01*
X103584538Y-135817857D01*
X103608348Y-136008333D01*
X103578586Y-136246428D01*
X103507157Y-136436904D01*
X103447633Y-136532142D01*
X103394062Y-136579761D01*
X103292872Y-136627380D01*
X103197633Y-136627380D01*
X103108348Y-136579761D01*
X103066681Y-136532142D01*
X103030967Y-136436904D01*
X103007157Y-136246428D01*
X103036919Y-136008333D01*
X103108348Y-135817857D01*
X103167872Y-135722619D01*
X103221443Y-135675000D01*
X103322633Y-135627380D01*
X104275014Y-135627380D02*
X104370252Y-135627380D01*
X104459538Y-135675000D01*
X104501205Y-135722619D01*
X104536919Y-135817857D01*
X104560729Y-136008333D01*
X104530967Y-136246428D01*
X104459538Y-136436904D01*
X104400014Y-136532142D01*
X104346443Y-136579761D01*
X104245252Y-136627380D01*
X104150014Y-136627380D01*
X104060729Y-136579761D01*
X104019062Y-136532142D01*
X103983348Y-136436904D01*
X103959538Y-136246428D01*
X103989300Y-136008333D01*
X104060729Y-135817857D01*
X104120252Y-135722619D01*
X104173824Y-135675000D01*
X104275014Y-135627380D01*
X105310729Y-136103571D02*
X104977395Y-136103571D01*
X104911919Y-136627380D02*
X105036919Y-135627380D01*
X105513110Y-135627380D01*
X105769062Y-136627380D02*
X105894062Y-135627380D01*
X106340491Y-136627380D01*
X106465491Y-135627380D01*
X98870252Y-138229761D02*
X99007157Y-138277380D01*
X99245252Y-138277380D01*
X99346443Y-138229761D01*
X99400014Y-138182142D01*
X99459538Y-138086904D01*
X99471443Y-137991666D01*
X99435729Y-137896428D01*
X99394062Y-137848809D01*
X99304776Y-137801190D01*
X99120252Y-137753571D01*
X99030967Y-137705952D01*
X98989300Y-137658333D01*
X98953586Y-137563095D01*
X98965491Y-137467857D01*
X99025014Y-137372619D01*
X99078586Y-137325000D01*
X99179776Y-137277380D01*
X99417872Y-137277380D01*
X99554776Y-137325000D01*
X100007157Y-138277380D02*
X99917872Y-138229761D01*
X99876205Y-138182142D01*
X99840491Y-138086904D01*
X99876205Y-137801190D01*
X99935729Y-137705952D01*
X99989300Y-137658333D01*
X100090491Y-137610714D01*
X100233348Y-137610714D01*
X100322633Y-137658333D01*
X100364300Y-137705952D01*
X100400014Y-137801190D01*
X100364300Y-138086904D01*
X100304776Y-138182142D01*
X100251205Y-138229761D01*
X100150014Y-138277380D01*
X100007157Y-138277380D01*
X101203586Y-138229761D02*
X101102395Y-138277380D01*
X100911919Y-138277380D01*
X100822633Y-138229761D01*
X100780967Y-138182142D01*
X100745252Y-138086904D01*
X100780967Y-137801190D01*
X100840491Y-137705952D01*
X100894062Y-137658333D01*
X100995252Y-137610714D01*
X101185729Y-137610714D01*
X101275014Y-137658333D01*
X101626205Y-138277380D02*
X101751205Y-137277380D01*
X101769062Y-137896428D02*
X102007157Y-138277380D01*
X102090491Y-137610714D02*
X101661919Y-137991666D01*
X102822633Y-138229761D02*
X102721443Y-138277380D01*
X102530967Y-138277380D01*
X102441681Y-138229761D01*
X102405967Y-138134523D01*
X102453586Y-137753571D01*
X102513110Y-137658333D01*
X102614300Y-137610714D01*
X102804776Y-137610714D01*
X102894062Y-137658333D01*
X102929776Y-137753571D01*
X102917872Y-137848809D01*
X102429776Y-137944047D01*
X103233348Y-137610714D02*
X103614300Y-137610714D01*
X103417872Y-137277380D02*
X103310729Y-138134523D01*
X103346443Y-138229761D01*
X103435729Y-138277380D01*
X103530967Y-138277380D01*
D12*
X163930000Y-121190000D02*
X163600000Y-121190000D01*
X163930000Y-127730000D02*
X163930000Y-121190000D01*
X163600000Y-127730000D02*
X163930000Y-127730000D01*
X161190000Y-121190000D02*
X161520000Y-121190000D01*
X161190000Y-127730000D02*
X161190000Y-121190000D01*
X161520000Y-127730000D02*
X161190000Y-127730000D01*
X167105000Y-131350000D02*
X166775000Y-131350000D01*
X167105000Y-137890000D02*
X167105000Y-131350000D01*
X166775000Y-137890000D02*
X167105000Y-137890000D01*
X164365000Y-131350000D02*
X164695000Y-131350000D01*
X164365000Y-137890000D02*
X164365000Y-131350000D01*
X164695000Y-137890000D02*
X164365000Y-137890000D01*
X167105000Y-121190000D02*
X166775000Y-121190000D01*
X167105000Y-127730000D02*
X167105000Y-121190000D01*
X166775000Y-127730000D02*
X167105000Y-127730000D01*
X164365000Y-121190000D02*
X164695000Y-121190000D01*
X164365000Y-127730000D02*
X164365000Y-121190000D01*
X164695000Y-127730000D02*
X164365000Y-127730000D01*
X104856000Y-118500000D02*
X104896000Y-118500000D01*
X110276000Y-118500000D02*
X110236000Y-118500000D01*
X104896000Y-120170000D02*
X110236000Y-120170000D01*
X104896000Y-116830000D02*
X104896000Y-120170000D01*
X110236000Y-116830000D02*
X104896000Y-116830000D01*
X110236000Y-120170000D02*
X110236000Y-116830000D01*
X102980000Y-153670000D02*
X102940000Y-153670000D01*
X97560000Y-153670000D02*
X97600000Y-153670000D01*
X102940000Y-152000000D02*
X97600000Y-152000000D01*
X102940000Y-155340000D02*
X102940000Y-152000000D01*
X97600000Y-155340000D02*
X102940000Y-155340000D01*
X97600000Y-152000000D02*
X97600000Y-155340000D01*
X154367000Y-148619000D02*
X154327000Y-148619000D01*
X148947000Y-148619000D02*
X148987000Y-148619000D01*
X154327000Y-146949000D02*
X148987000Y-146949000D01*
X154327000Y-150289000D02*
X154327000Y-146949000D01*
X148987000Y-150289000D02*
X154327000Y-150289000D01*
X148987000Y-146949000D02*
X148987000Y-150289000D01*
X192434000Y-129414000D02*
X192434000Y-129454000D01*
X192434000Y-134834000D02*
X192434000Y-134794000D01*
X190764000Y-129454000D02*
X190764000Y-134794000D01*
X194104000Y-129454000D02*
X190764000Y-129454000D01*
X194104000Y-134794000D02*
X194104000Y-129454000D01*
X190764000Y-134794000D02*
X194104000Y-134794000D01*
X141667000Y-148619000D02*
X141627000Y-148619000D01*
X136247000Y-148619000D02*
X136287000Y-148619000D01*
X141627000Y-146949000D02*
X136287000Y-146949000D01*
X141627000Y-150289000D02*
X141627000Y-146949000D01*
X136287000Y-150289000D02*
X141627000Y-150289000D01*
X136287000Y-146949000D02*
X136287000Y-150289000D01*
X192441000Y-142119000D02*
X192441000Y-142159000D01*
X192441000Y-147539000D02*
X192441000Y-147499000D01*
X190771000Y-142159000D02*
X190771000Y-147499000D01*
X194111000Y-142159000D02*
X190771000Y-142159000D01*
X194111000Y-147499000D02*
X194111000Y-142159000D01*
X190771000Y-147499000D02*
X194111000Y-147499000D01*
X192416000Y-96631300D02*
X192416000Y-96591300D01*
X192416000Y-91211300D02*
X192416000Y-91251300D01*
X194086000Y-96591300D02*
X194086000Y-91251300D01*
X190746000Y-96591300D02*
X194086000Y-96591300D01*
X190746000Y-91251300D02*
X190746000Y-96591300D01*
X194086000Y-91251300D02*
X190746000Y-91251300D01*
X192421000Y-104027000D02*
X192421000Y-104067000D01*
X192421000Y-109447000D02*
X192421000Y-109407000D01*
X190751000Y-104067000D02*
X190751000Y-109407000D01*
X194091000Y-104067000D02*
X190751000Y-104067000D01*
X194091000Y-109407000D02*
X194091000Y-104067000D01*
X190751000Y-109407000D02*
X194091000Y-109407000D01*
X192428000Y-116726000D02*
X192428000Y-116766000D01*
X192428000Y-122146000D02*
X192428000Y-122106000D01*
X190758000Y-116766000D02*
X190758000Y-122106000D01*
X194098000Y-116766000D02*
X190758000Y-116766000D01*
X194098000Y-122106000D02*
X194098000Y-116766000D01*
X190758000Y-122106000D02*
X194098000Y-122106000D01*
X128967000Y-148619000D02*
X128927000Y-148619000D01*
X123547000Y-148619000D02*
X123587000Y-148619000D01*
X128927000Y-146949000D02*
X123587000Y-146949000D01*
X128927000Y-150289000D02*
X128927000Y-146949000D01*
X123587000Y-150289000D02*
X128927000Y-150289000D01*
X123587000Y-146949000D02*
X123587000Y-150289000D01*
X162560000Y-131970000D02*
X162560000Y-132010000D01*
X162560000Y-137390000D02*
X162560000Y-137350000D01*
X160890000Y-132010000D02*
X160890000Y-137350000D01*
X164230000Y-132010000D02*
X160890000Y-132010000D01*
X164230000Y-137350000D02*
X164230000Y-132010000D01*
X160890000Y-137350000D02*
X164230000Y-137350000D01*
X165735000Y-142130000D02*
X165735000Y-142170000D01*
X165735000Y-147550000D02*
X165735000Y-147510000D01*
X164065000Y-142170000D02*
X164065000Y-147510000D01*
X167405000Y-142170000D02*
X164065000Y-142170000D01*
X167405000Y-147510000D02*
X167405000Y-142170000D01*
X164065000Y-147510000D02*
X167405000Y-147510000D01*
X189936000Y-94981300D02*
G75*
G02X189936000Y-92981300I0J1000000D01*
G01*
X189936000Y-92981300D02*
X189936000Y-91731300D01*
X189936000Y-91731300D02*
X172036000Y-91731300D01*
X172036000Y-91731300D02*
X172036000Y-96231300D01*
X172036000Y-96231300D02*
X189936000Y-96231300D01*
X189936000Y-96231300D02*
X189936000Y-94981300D01*
X189941000Y-108927000D02*
X189941000Y-107677000D01*
X172041000Y-108927000D02*
X189941000Y-108927000D01*
X172041000Y-104427000D02*
X172041000Y-108927000D01*
X189941000Y-104427000D02*
X172041000Y-104427000D01*
X189941000Y-105677000D02*
X189941000Y-104427000D01*
X189941000Y-107677000D02*
G75*
G02X189941000Y-105677000I0J1000000D01*
G01*
X189948000Y-120376000D02*
G75*
G02X189948000Y-118376000I0J1000000D01*
G01*
X189948000Y-118376000D02*
X189948000Y-117126000D01*
X189948000Y-117126000D02*
X172048000Y-117126000D01*
X172048000Y-117126000D02*
X172048000Y-121626000D01*
X172048000Y-121626000D02*
X189948000Y-121626000D01*
X189948000Y-121626000D02*
X189948000Y-120376000D01*
X125317000Y-146139000D02*
G75*
G02X127317000Y-146139000I1000000J0D01*
G01*
X127317000Y-146139000D02*
X128567000Y-146139000D01*
X128567000Y-146139000D02*
X128567000Y-125699000D01*
X128567000Y-125699000D02*
X124067000Y-125699000D01*
X124067000Y-125699000D02*
X124067000Y-146139000D01*
X124067000Y-146139000D02*
X125317000Y-146139000D01*
X189954000Y-134314000D02*
X189954000Y-133064000D01*
X172054000Y-134314000D02*
X189954000Y-134314000D01*
X172054000Y-129814000D02*
X172054000Y-134314000D01*
X189954000Y-129814000D02*
X172054000Y-129814000D01*
X189954000Y-131064000D02*
X189954000Y-129814000D01*
X189954000Y-133064000D02*
G75*
G02X189954000Y-131064000I0J1000000D01*
G01*
X167065000Y-154365000D02*
X167065000Y-151705000D01*
X161925000Y-154365000D02*
X167065000Y-154365000D01*
X161925000Y-151705000D02*
X167065000Y-151705000D01*
X161925000Y-154365000D02*
X161925000Y-151705000D01*
X160655000Y-154365000D02*
X159325000Y-154365000D01*
X159325000Y-154365000D02*
X159325000Y-153035000D01*
X138017000Y-146139000D02*
G75*
G02X140017000Y-146139000I1000000J0D01*
G01*
X140017000Y-146139000D02*
X141267000Y-146139000D01*
X141267000Y-146139000D02*
X141267000Y-125699000D01*
X141267000Y-125699000D02*
X136767000Y-125699000D01*
X136767000Y-125699000D02*
X136767000Y-146139000D01*
X136767000Y-146139000D02*
X138017000Y-146139000D01*
X150717000Y-146139000D02*
G75*
G02X152717000Y-146139000I1000000J0D01*
G01*
X152717000Y-146139000D02*
X153967000Y-146139000D01*
X153967000Y-146139000D02*
X153967000Y-125699000D01*
X153967000Y-125699000D02*
X149467000Y-125699000D01*
X149467000Y-125699000D02*
X149467000Y-146139000D01*
X149467000Y-146139000D02*
X150717000Y-146139000D01*
X189961000Y-145769000D02*
G75*
G02X189961000Y-143769000I0J1000000D01*
G01*
X189961000Y-143769000D02*
X189961000Y-142519000D01*
X189961000Y-142519000D02*
X172061000Y-142519000D01*
X172061000Y-142519000D02*
X172061000Y-147019000D01*
X172061000Y-147019000D02*
X189961000Y-147019000D01*
X189961000Y-147019000D02*
X189961000Y-145769000D01*
X85588000Y-137146000D02*
X85588000Y-150771000D01*
X85588000Y-150771000D02*
X86588000Y-151771000D01*
X86588000Y-151771000D02*
X116838000Y-151771000D01*
X116838000Y-151771000D02*
X116838000Y-120521000D01*
X116838000Y-120521000D02*
X85588000Y-120521000D01*
X85588000Y-120521000D02*
X85588000Y-135146000D01*
X85670000Y-100570000D02*
G75*
G02X85670000Y-102570000I0J-1000000D01*
G01*
X85670000Y-102570000D02*
X85670000Y-111440000D01*
X85670000Y-111440000D02*
X167070000Y-111440000D01*
X167070000Y-111440000D02*
X167070000Y-91700000D01*
X167070000Y-91700000D02*
X85670000Y-91700000D01*
X85670000Y-91700000D02*
X85670000Y-100570000D01*
D11*
X163012380Y-124626666D02*
X162536190Y-124960000D01*
X163012380Y-125198095D02*
X162012380Y-125198095D01*
X162012380Y-124817142D01*
X162060000Y-124721904D01*
X162107619Y-124674285D01*
X162202857Y-124626666D01*
X162345714Y-124626666D01*
X162440952Y-124674285D01*
X162488571Y-124721904D01*
X162536190Y-124817142D01*
X162536190Y-125198095D01*
X162012380Y-124293333D02*
X162012380Y-123674285D01*
X162393333Y-124007619D01*
X162393333Y-123864761D01*
X162440952Y-123769523D01*
X162488571Y-123721904D01*
X162583809Y-123674285D01*
X162821904Y-123674285D01*
X162917142Y-123721904D01*
X162964761Y-123769523D01*
X163012380Y-123864761D01*
X163012380Y-124150476D01*
X162964761Y-124245714D01*
X162917142Y-124293333D01*
X166187380Y-134786666D02*
X165711190Y-135120000D01*
X166187380Y-135358095D02*
X165187380Y-135358095D01*
X165187380Y-134977142D01*
X165235000Y-134881904D01*
X165282619Y-134834285D01*
X165377857Y-134786666D01*
X165520714Y-134786666D01*
X165615952Y-134834285D01*
X165663571Y-134881904D01*
X165711190Y-134977142D01*
X165711190Y-135358095D01*
X165282619Y-134405714D02*
X165235000Y-134358095D01*
X165187380Y-134262857D01*
X165187380Y-134024761D01*
X165235000Y-133929523D01*
X165282619Y-133881904D01*
X165377857Y-133834285D01*
X165473095Y-133834285D01*
X165615952Y-133881904D01*
X166187380Y-134453333D01*
X166187380Y-133834285D01*
X166201380Y-124626666D02*
X165725190Y-124960000D01*
X166201380Y-125198095D02*
X165201380Y-125198095D01*
X165201380Y-124817142D01*
X165249000Y-124721904D01*
X165296619Y-124674285D01*
X165391857Y-124626666D01*
X165534714Y-124626666D01*
X165629952Y-124674285D01*
X165677571Y-124721904D01*
X165725190Y-124817142D01*
X165725190Y-125198095D01*
X166201380Y-123674285D02*
X166201380Y-124245714D01*
X166201380Y-123960000D02*
X165201380Y-123960000D01*
X165344238Y-124055238D01*
X165439476Y-124150476D01*
X165487095Y-124245714D01*
X106923142Y-118857142D02*
X106875523Y-118904761D01*
X106732666Y-118952380D01*
X106637428Y-118952380D01*
X106494571Y-118904761D01*
X106399333Y-118809523D01*
X106351714Y-118714285D01*
X106304095Y-118523809D01*
X106304095Y-118380952D01*
X106351714Y-118190476D01*
X106399333Y-118095238D01*
X106494571Y-118000000D01*
X106637428Y-117952380D01*
X106732666Y-117952380D01*
X106875523Y-118000000D01*
X106923142Y-118047619D01*
X107875523Y-118952380D02*
X107304095Y-118952380D01*
X107589809Y-118952380D02*
X107589809Y-117952380D01*
X107494571Y-118095238D01*
X107399333Y-118190476D01*
X107304095Y-118238095D01*
X108256476Y-118047619D02*
X108304095Y-118000000D01*
X108399333Y-117952380D01*
X108637428Y-117952380D01*
X108732666Y-118000000D01*
X108780285Y-118047619D01*
X108827904Y-118142857D01*
X108827904Y-118238095D01*
X108780285Y-118380952D01*
X108208857Y-118952380D01*
X108827904Y-118952380D01*
X99627142Y-154027142D02*
X99579523Y-154074761D01*
X99436666Y-154122380D01*
X99341428Y-154122380D01*
X99198571Y-154074761D01*
X99103333Y-153979523D01*
X99055714Y-153884285D01*
X99008095Y-153693809D01*
X99008095Y-153550952D01*
X99055714Y-153360476D01*
X99103333Y-153265238D01*
X99198571Y-153170000D01*
X99341428Y-153122380D01*
X99436666Y-153122380D01*
X99579523Y-153170000D01*
X99627142Y-153217619D01*
X100579523Y-154122380D02*
X100008095Y-154122380D01*
X100293809Y-154122380D02*
X100293809Y-153122380D01*
X100198571Y-153265238D01*
X100103333Y-153360476D01*
X100008095Y-153408095D01*
X101531904Y-154122380D02*
X100960476Y-154122380D01*
X101246190Y-154122380D02*
X101246190Y-153122380D01*
X101150952Y-153265238D01*
X101055714Y-153360476D01*
X100960476Y-153408095D01*
X151014142Y-149201142D02*
X150966523Y-149248761D01*
X150823666Y-149296380D01*
X150728428Y-149296380D01*
X150585571Y-149248761D01*
X150490333Y-149153523D01*
X150442714Y-149058285D01*
X150395095Y-148867809D01*
X150395095Y-148724952D01*
X150442714Y-148534476D01*
X150490333Y-148439238D01*
X150585571Y-148344000D01*
X150728428Y-148296380D01*
X150823666Y-148296380D01*
X150966523Y-148344000D01*
X151014142Y-148391619D01*
X151966523Y-149296380D02*
X151395095Y-149296380D01*
X151680809Y-149296380D02*
X151680809Y-148296380D01*
X151585571Y-148439238D01*
X151490333Y-148534476D01*
X151395095Y-148582095D01*
X152585571Y-148296380D02*
X152680809Y-148296380D01*
X152776047Y-148344000D01*
X152823666Y-148391619D01*
X152871285Y-148486857D01*
X152918904Y-148677333D01*
X152918904Y-148915428D01*
X152871285Y-149105904D01*
X152823666Y-149201142D01*
X152776047Y-149248761D01*
X152680809Y-149296380D01*
X152585571Y-149296380D01*
X152490333Y-149248761D01*
X152442714Y-149201142D01*
X152395095Y-149105904D01*
X152347476Y-148915428D01*
X152347476Y-148677333D01*
X152395095Y-148486857D01*
X152442714Y-148391619D01*
X152490333Y-148344000D01*
X152585571Y-148296380D01*
X192762142Y-132290666D02*
X192809761Y-132338285D01*
X192857380Y-132481142D01*
X192857380Y-132576380D01*
X192809761Y-132719238D01*
X192714523Y-132814476D01*
X192619285Y-132862095D01*
X192428809Y-132909714D01*
X192285952Y-132909714D01*
X192095476Y-132862095D01*
X192000238Y-132814476D01*
X191905000Y-132719238D01*
X191857380Y-132576380D01*
X191857380Y-132481142D01*
X191905000Y-132338285D01*
X191952619Y-132290666D01*
X192857380Y-131814476D02*
X192857380Y-131624000D01*
X192809761Y-131528761D01*
X192762142Y-131481142D01*
X192619285Y-131385904D01*
X192428809Y-131338285D01*
X192047857Y-131338285D01*
X191952619Y-131385904D01*
X191905000Y-131433523D01*
X191857380Y-131528761D01*
X191857380Y-131719238D01*
X191905000Y-131814476D01*
X191952619Y-131862095D01*
X192047857Y-131909714D01*
X192285952Y-131909714D01*
X192381190Y-131862095D01*
X192428809Y-131814476D01*
X192476428Y-131719238D01*
X192476428Y-131528761D01*
X192428809Y-131433523D01*
X192381190Y-131385904D01*
X192285952Y-131338285D01*
X138790333Y-148947142D02*
X138742714Y-148994761D01*
X138599857Y-149042380D01*
X138504619Y-149042380D01*
X138361761Y-148994761D01*
X138266523Y-148899523D01*
X138218904Y-148804285D01*
X138171285Y-148613809D01*
X138171285Y-148470952D01*
X138218904Y-148280476D01*
X138266523Y-148185238D01*
X138361761Y-148090000D01*
X138504619Y-148042380D01*
X138599857Y-148042380D01*
X138742714Y-148090000D01*
X138790333Y-148137619D01*
X139361761Y-148470952D02*
X139266523Y-148423333D01*
X139218904Y-148375714D01*
X139171285Y-148280476D01*
X139171285Y-148232857D01*
X139218904Y-148137619D01*
X139266523Y-148090000D01*
X139361761Y-148042380D01*
X139552238Y-148042380D01*
X139647476Y-148090000D01*
X139695095Y-148137619D01*
X139742714Y-148232857D01*
X139742714Y-148280476D01*
X139695095Y-148375714D01*
X139647476Y-148423333D01*
X139552238Y-148470952D01*
X139361761Y-148470952D01*
X139266523Y-148518571D01*
X139218904Y-148566190D01*
X139171285Y-148661428D01*
X139171285Y-148851904D01*
X139218904Y-148947142D01*
X139266523Y-148994761D01*
X139361761Y-149042380D01*
X139552238Y-149042380D01*
X139647476Y-148994761D01*
X139695095Y-148947142D01*
X139742714Y-148851904D01*
X139742714Y-148661428D01*
X139695095Y-148566190D01*
X139647476Y-148518571D01*
X139552238Y-148470952D01*
X192762142Y-144947066D02*
X192809761Y-144994685D01*
X192857380Y-145137542D01*
X192857380Y-145232780D01*
X192809761Y-145375638D01*
X192714523Y-145470876D01*
X192619285Y-145518495D01*
X192428809Y-145566114D01*
X192285952Y-145566114D01*
X192095476Y-145518495D01*
X192000238Y-145470876D01*
X191905000Y-145375638D01*
X191857380Y-145232780D01*
X191857380Y-145137542D01*
X191905000Y-144994685D01*
X191952619Y-144947066D01*
X191857380Y-144613733D02*
X191857380Y-143947066D01*
X192857380Y-144375638D01*
X192762542Y-94087966D02*
X192810161Y-94135585D01*
X192857780Y-94278442D01*
X192857780Y-94373680D01*
X192810161Y-94516538D01*
X192714923Y-94611776D01*
X192619685Y-94659395D01*
X192429209Y-94707014D01*
X192286352Y-94707014D01*
X192095876Y-94659395D01*
X192000638Y-94611776D01*
X191905400Y-94516538D01*
X191857780Y-94373680D01*
X191857780Y-94278442D01*
X191905400Y-94135585D01*
X191953019Y-94087966D01*
X191857780Y-93230823D02*
X191857780Y-93421300D01*
X191905400Y-93516538D01*
X191953019Y-93564157D01*
X192095876Y-93659395D01*
X192286352Y-93707014D01*
X192667304Y-93707014D01*
X192762542Y-93659395D01*
X192810161Y-93611776D01*
X192857780Y-93516538D01*
X192857780Y-93326061D01*
X192810161Y-93230823D01*
X192762542Y-93183204D01*
X192667304Y-93135585D01*
X192429209Y-93135585D01*
X192333971Y-93183204D01*
X192286352Y-93230823D01*
X192238733Y-93326061D01*
X192238733Y-93516538D01*
X192286352Y-93611776D01*
X192333971Y-93659395D01*
X192429209Y-93707014D01*
X192761842Y-106903666D02*
X192809461Y-106951285D01*
X192857080Y-107094142D01*
X192857080Y-107189380D01*
X192809461Y-107332238D01*
X192714223Y-107427476D01*
X192618985Y-107475095D01*
X192428509Y-107522714D01*
X192285652Y-107522714D01*
X192095176Y-107475095D01*
X191999938Y-107427476D01*
X191904700Y-107332238D01*
X191857080Y-107189380D01*
X191857080Y-107094142D01*
X191904700Y-106951285D01*
X191952319Y-106903666D01*
X191857080Y-105998904D02*
X191857080Y-106475095D01*
X192333271Y-106522714D01*
X192285652Y-106475095D01*
X192238033Y-106379857D01*
X192238033Y-106141761D01*
X192285652Y-106046523D01*
X192333271Y-105998904D01*
X192428509Y-105951285D01*
X192666604Y-105951285D01*
X192761842Y-105998904D01*
X192809461Y-106046523D01*
X192857080Y-106141761D01*
X192857080Y-106379857D01*
X192809461Y-106475095D01*
X192761842Y-106522714D01*
X192761742Y-119546166D02*
X192809361Y-119593785D01*
X192856980Y-119736642D01*
X192856980Y-119831880D01*
X192809361Y-119974738D01*
X192714123Y-120069976D01*
X192618885Y-120117595D01*
X192428409Y-120165214D01*
X192285552Y-120165214D01*
X192095076Y-120117595D01*
X191999838Y-120069976D01*
X191904600Y-119974738D01*
X191856980Y-119831880D01*
X191856980Y-119736642D01*
X191904600Y-119593785D01*
X191952219Y-119546166D01*
X192190314Y-118689023D02*
X192856980Y-118689023D01*
X191809361Y-118927119D02*
X192523647Y-119165214D01*
X192523647Y-118546166D01*
X126090333Y-148947142D02*
X126042714Y-148994761D01*
X125899857Y-149042380D01*
X125804619Y-149042380D01*
X125661761Y-148994761D01*
X125566523Y-148899523D01*
X125518904Y-148804285D01*
X125471285Y-148613809D01*
X125471285Y-148470952D01*
X125518904Y-148280476D01*
X125566523Y-148185238D01*
X125661761Y-148090000D01*
X125804619Y-148042380D01*
X125899857Y-148042380D01*
X126042714Y-148090000D01*
X126090333Y-148137619D01*
X126423666Y-148042380D02*
X127042714Y-148042380D01*
X126709380Y-148423333D01*
X126852238Y-148423333D01*
X126947476Y-148470952D01*
X126995095Y-148518571D01*
X127042714Y-148613809D01*
X127042714Y-148851904D01*
X126995095Y-148947142D01*
X126947476Y-148994761D01*
X126852238Y-149042380D01*
X126566523Y-149042380D01*
X126471285Y-148994761D01*
X126423666Y-148947142D01*
X162917142Y-134846666D02*
X162964761Y-134894285D01*
X163012380Y-135037142D01*
X163012380Y-135132380D01*
X162964761Y-135275238D01*
X162869523Y-135370476D01*
X162774285Y-135418095D01*
X162583809Y-135465714D01*
X162440952Y-135465714D01*
X162250476Y-135418095D01*
X162155238Y-135370476D01*
X162060000Y-135275238D01*
X162012380Y-135132380D01*
X162012380Y-135037142D01*
X162060000Y-134894285D01*
X162107619Y-134846666D01*
X162107619Y-134465714D02*
X162060000Y-134418095D01*
X162012380Y-134322857D01*
X162012380Y-134084761D01*
X162060000Y-133989523D01*
X162107619Y-133941904D01*
X162202857Y-133894285D01*
X162298095Y-133894285D01*
X162440952Y-133941904D01*
X163012380Y-134513333D01*
X163012380Y-133894285D01*
X166092142Y-144946666D02*
X166139761Y-144994285D01*
X166187380Y-145137142D01*
X166187380Y-145232380D01*
X166139761Y-145375238D01*
X166044523Y-145470476D01*
X165949285Y-145518095D01*
X165758809Y-145565714D01*
X165615952Y-145565714D01*
X165425476Y-145518095D01*
X165330238Y-145470476D01*
X165235000Y-145375238D01*
X165187380Y-145232380D01*
X165187380Y-145137142D01*
X165235000Y-144994285D01*
X165282619Y-144946666D01*
X166187380Y-143994285D02*
X166187380Y-144565714D01*
X166187380Y-144280000D02*
X165187380Y-144280000D01*
X165330238Y-144375238D01*
X165425476Y-144470476D01*
X165473095Y-144565714D01*
X172818380Y-94743204D02*
X173627904Y-94743204D01*
X173723142Y-94695585D01*
X173770761Y-94647966D01*
X173818380Y-94552728D01*
X173818380Y-94362252D01*
X173770761Y-94267014D01*
X173723142Y-94219395D01*
X173627904Y-94171776D01*
X172818380Y-94171776D01*
X172818380Y-93790823D02*
X172818380Y-93171776D01*
X173199333Y-93505109D01*
X173199333Y-93362252D01*
X173246952Y-93267014D01*
X173294571Y-93219395D01*
X173389809Y-93171776D01*
X173627904Y-93171776D01*
X173723142Y-93219395D01*
X173770761Y-93267014D01*
X173818380Y-93362252D01*
X173818380Y-93647966D01*
X173770761Y-93743204D01*
X173723142Y-93790823D01*
X172823380Y-107438904D02*
X173632904Y-107438904D01*
X173728142Y-107391285D01*
X173775761Y-107343666D01*
X173823380Y-107248428D01*
X173823380Y-107057952D01*
X173775761Y-106962714D01*
X173728142Y-106915095D01*
X173632904Y-106867476D01*
X172823380Y-106867476D01*
X173156714Y-105962714D02*
X173823380Y-105962714D01*
X172775761Y-106200809D02*
X173490047Y-106438904D01*
X173490047Y-105819857D01*
X172830380Y-120137904D02*
X173639904Y-120137904D01*
X173735142Y-120090285D01*
X173782761Y-120042666D01*
X173830380Y-119947428D01*
X173830380Y-119756952D01*
X173782761Y-119661714D01*
X173735142Y-119614095D01*
X173639904Y-119566476D01*
X172830380Y-119566476D01*
X172830380Y-118614095D02*
X172830380Y-119090285D01*
X173306571Y-119137904D01*
X173258952Y-119090285D01*
X173211333Y-118995047D01*
X173211333Y-118756952D01*
X173258952Y-118661714D01*
X173306571Y-118614095D01*
X173401809Y-118566476D01*
X173639904Y-118566476D01*
X173735142Y-118614095D01*
X173782761Y-118661714D01*
X173830380Y-118756952D01*
X173830380Y-118995047D01*
X173782761Y-119090285D01*
X173735142Y-119137904D01*
X125555095Y-126481380D02*
X125555095Y-127290904D01*
X125602714Y-127386142D01*
X125650333Y-127433761D01*
X125745571Y-127481380D01*
X125936047Y-127481380D01*
X126031285Y-127433761D01*
X126078904Y-127386142D01*
X126126523Y-127290904D01*
X126126523Y-126481380D01*
X127031285Y-126481380D02*
X126840809Y-126481380D01*
X126745571Y-126529000D01*
X126697952Y-126576619D01*
X126602714Y-126719476D01*
X126555095Y-126909952D01*
X126555095Y-127290904D01*
X126602714Y-127386142D01*
X126650333Y-127433761D01*
X126745571Y-127481380D01*
X126936047Y-127481380D01*
X127031285Y-127433761D01*
X127078904Y-127386142D01*
X127126523Y-127290904D01*
X127126523Y-127052809D01*
X127078904Y-126957571D01*
X127031285Y-126909952D01*
X126936047Y-126862333D01*
X126745571Y-126862333D01*
X126650333Y-126909952D01*
X126602714Y-126957571D01*
X126555095Y-127052809D01*
X172836380Y-132825904D02*
X173645904Y-132825904D01*
X173741142Y-132778285D01*
X173788761Y-132730666D01*
X173836380Y-132635428D01*
X173836380Y-132444952D01*
X173788761Y-132349714D01*
X173741142Y-132302095D01*
X173645904Y-132254476D01*
X172836380Y-132254476D01*
X172836380Y-131873523D02*
X172836380Y-131206857D01*
X173836380Y-131635428D01*
X168068666Y-152487380D02*
X168068666Y-153201666D01*
X168021047Y-153344523D01*
X167925809Y-153439761D01*
X167782952Y-153487380D01*
X167687714Y-153487380D01*
X169068666Y-153487380D02*
X168497238Y-153487380D01*
X168782952Y-153487380D02*
X168782952Y-152487380D01*
X168687714Y-152630238D01*
X168592476Y-152725476D01*
X168497238Y-152773095D01*
X138255095Y-126481380D02*
X138255095Y-127290904D01*
X138302714Y-127386142D01*
X138350333Y-127433761D01*
X138445571Y-127481380D01*
X138636047Y-127481380D01*
X138731285Y-127433761D01*
X138778904Y-127386142D01*
X138826523Y-127290904D01*
X138826523Y-126481380D01*
X139445571Y-126909952D02*
X139350333Y-126862333D01*
X139302714Y-126814714D01*
X139255095Y-126719476D01*
X139255095Y-126671857D01*
X139302714Y-126576619D01*
X139350333Y-126529000D01*
X139445571Y-126481380D01*
X139636047Y-126481380D01*
X139731285Y-126529000D01*
X139778904Y-126576619D01*
X139826523Y-126671857D01*
X139826523Y-126719476D01*
X139778904Y-126814714D01*
X139731285Y-126862333D01*
X139636047Y-126909952D01*
X139445571Y-126909952D01*
X139350333Y-126957571D01*
X139302714Y-127005190D01*
X139255095Y-127100428D01*
X139255095Y-127290904D01*
X139302714Y-127386142D01*
X139350333Y-127433761D01*
X139445571Y-127481380D01*
X139636047Y-127481380D01*
X139731285Y-127433761D01*
X139778904Y-127386142D01*
X139826523Y-127290904D01*
X139826523Y-127100428D01*
X139778904Y-127005190D01*
X139731285Y-126957571D01*
X139636047Y-126909952D01*
X150955095Y-126481380D02*
X150955095Y-127290904D01*
X151002714Y-127386142D01*
X151050333Y-127433761D01*
X151145571Y-127481380D01*
X151336047Y-127481380D01*
X151431285Y-127433761D01*
X151478904Y-127386142D01*
X151526523Y-127290904D01*
X151526523Y-126481380D01*
X152050333Y-127481380D02*
X152240809Y-127481380D01*
X152336047Y-127433761D01*
X152383666Y-127386142D01*
X152478904Y-127243285D01*
X152526523Y-127052809D01*
X152526523Y-126671857D01*
X152478904Y-126576619D01*
X152431285Y-126529000D01*
X152336047Y-126481380D01*
X152145571Y-126481380D01*
X152050333Y-126529000D01*
X152002714Y-126576619D01*
X151955095Y-126671857D01*
X151955095Y-126909952D01*
X152002714Y-127005190D01*
X152050333Y-127052809D01*
X152145571Y-127100428D01*
X152336047Y-127100428D01*
X152431285Y-127052809D01*
X152478904Y-127005190D01*
X152526523Y-126909952D01*
X172843380Y-146007095D02*
X173652904Y-146007095D01*
X173748142Y-145959476D01*
X173795761Y-145911857D01*
X173843380Y-145816619D01*
X173843380Y-145626142D01*
X173795761Y-145530904D01*
X173748142Y-145483285D01*
X173652904Y-145435666D01*
X172843380Y-145435666D01*
X173843380Y-144435666D02*
X173843380Y-145007095D01*
X173843380Y-144721380D02*
X172843380Y-144721380D01*
X172986238Y-144816619D01*
X173081476Y-144911857D01*
X173129095Y-145007095D01*
X172843380Y-143816619D02*
X172843380Y-143721380D01*
X172891000Y-143626142D01*
X172938619Y-143578523D01*
X173033857Y-143530904D01*
X173224333Y-143483285D01*
X173462428Y-143483285D01*
X173652904Y-143530904D01*
X173748142Y-143578523D01*
X173795761Y-143626142D01*
X173843380Y-143721380D01*
X173843380Y-143816619D01*
X173795761Y-143911857D01*
X173748142Y-143959476D01*
X173652904Y-144007095D01*
X173462428Y-144054714D01*
X173224333Y-144054714D01*
X173033857Y-144007095D01*
X172938619Y-143959476D01*
X172891000Y-143911857D01*
X172843380Y-143816619D01*
X100238095Y-132202380D02*
X100238095Y-133011904D01*
X100285714Y-133107142D01*
X100333333Y-133154761D01*
X100428571Y-133202380D01*
X100619047Y-133202380D01*
X100714285Y-133154761D01*
X100761904Y-133107142D01*
X100809523Y-133011904D01*
X100809523Y-132202380D01*
X101238095Y-132297619D02*
X101285714Y-132250000D01*
X101380952Y-132202380D01*
X101619047Y-132202380D01*
X101714285Y-132250000D01*
X101761904Y-132297619D01*
X101809523Y-132392857D01*
X101809523Y-132488095D01*
X101761904Y-132630952D01*
X101190476Y-133202380D01*
X101809523Y-133202380D01*
X87452380Y-102331904D02*
X88261904Y-102331904D01*
X88357142Y-102284285D01*
X88404761Y-102236666D01*
X88452380Y-102141428D01*
X88452380Y-101950952D01*
X88404761Y-101855714D01*
X88357142Y-101808095D01*
X88261904Y-101760476D01*
X87452380Y-101760476D01*
X88452380Y-100760476D02*
X88452380Y-101331904D01*
X88452380Y-101046190D02*
X87452380Y-101046190D01*
X87595238Y-101141428D01*
X87690476Y-101236666D01*
X87738095Y-101331904D01*
M02*
